<?xml version="1.0" encoding="utf-8"?>
<!-- Generator: Adobe Illustrator 22.1.0, SVG Export Plug-In . SVG Version: 6.00 Build 0)  -->
<svg version="1.1" id="Layer_1" xmlns="http://www.w3.org/2000/svg" xmlns:xlink="http://www.w3.org/1999/xlink" x="0px" y="0px"
	 viewBox="0 0 792 612" style="enable-background:new 0 0 792 612;" xml:space="preserve">
<style type="text/css">
	.st0{fill:#6CB33F;}
	.st1{fill:#00833E;}
	.st2{fill:#63A70A;}
</style>
<path class="st0" d="M255.9,223.6c0.4,2.2-2,1.2-2.6,2.2C252.9,225.2,254.8,223.9,255.9,223.6z"/>
<path class="st0" d="M248,229.1c0.6-0.6,0.9-1,1.3-1.3c0,0.3,0.6-0.6,0.4-0.9c0.3-0.1,0.3-0.4,0.6-0.6c0.1,0.1-0.4,0.3,0,0.4
	c0.6-0.4,0.7-1.4,1.4-2c0.1-0.1,0.6-0.1,0.9-0.3c0.1-0.1,0.3-0.4,0.4-0.6c0.7-0.7,1.7-1.3,2.2-1c-0.1,0.6-0.9,0.7-1,1.2
	c0.3,0.1,0.4-0.4,0.6,0.1c0.7-0.4,1.2-0.6,1.4-0.9c0.3,0,0.6,0,0.9,0.3c0.6-0.4,0.9-0.4,1.6-0.9c0.1,0.7,0.9-0.1,1.3,0.4
	c0.3,0,0.4,0,0.7-0.1c0.4,0.6,1,0,1.3,0.9c-0.3,0.3-0.6,0-0.9,0.4c0-0.1-0.1-0.1-0.1-0.3c-0.6,0.3-1,0.9-1.6,0.7
	c0.1,0.9-0.9,1-1.3,1.4c-0.1,0.1-0.1,0.4-0.4,0.6c-0.4,0.6-1.2,0.9-1.4,1.4c-0.4,0.4-0.7,1.3-1,1.9"/>
<g>
	<path class="st1" d="M382.5,336.5c-0.9-0.9-2.3-0.9-3.2-0.1c-5.7,5.4-10.9,8.7-19,8.7c-12.2,0-21.3-10-21.3-23.4
		c0-13.1,9.2-23,21.3-23c6.7,0,12.2,2.5,18.5,8.3c0.5,0.4,1.1,0.6,1.7,0.6c0.6,0,1.2-0.3,1.6-0.8l8.1-9.3c0.8-0.9,0.7-2.3-0.1-3.1
		c-6.1-5.8-14.4-11.8-29.6-11.8c-22.3,0-39.2,16.9-39.2,39.4c0,21.9,17,39.1,38.6,39.1c12.5,0,21.7-4,30.7-13.4
		c0.8-0.9,0.8-2.3,0-3.2L382.5,336.5z"/>
	<path class="st1" d="M434,282.7c-22.3,0-39.8,17.2-39.8,39.4c0,22.3,17,39.1,39.6,39.1c22.3,0,39.8-17.2,39.8-39.5
		C473.5,299.5,456.5,282.7,434,282.7 M434,345.2c-12.6,0-22-10-22-23.4c0-13.1,9.4-23,21.8-23c12.6,0,22,10,22,23.4
		C455.8,335.3,446.4,345.2,434,345.2"/>
	<path class="st1" d="M514.1,314.1c-14.5-3.5-15.2-5.7-15.2-9.2c0-3.7,3.8-6.2,9.4-6.2c5.9,0,11.8,2.3,18,6.9
		c0.5,0.4,1.1,0.5,1.7,0.4c0.6-0.1,1.1-0.4,1.5-0.9l6.7-9.5c0.7-1,0.5-2.3-0.4-3.1c-8-6.4-16.9-9.5-27.4-9.5
		c-15.5,0-26.7,9.7-26.7,23.2c0,14.5,9.4,19.6,25.6,23.6c13.3,3.1,14.4,5.6,14.4,8.9c0,4.9-5.4,6.7-10.4,6.7c-7.7,0-14-2.6-21.1-8.7
		c-0.5-0.4-1-0.6-1.7-0.5c-0.6,0.1-1.2,0.3-1.6,0.8l-7.6,9c-0.8,0.9-0.7,2.3,0.2,3.2c8.8,7.9,19.6,12,31.3,12
		c16.9,0,27.8-9.3,27.8-23.8C538.8,322.1,526.9,317.2,514.1,314.1"/>
	<path class="st1" d="M606.2,297.9v-11.6c0-1.2-1-2.3-2.3-2.3h-58c-1.3,0-2.3,1-2.3,2.3v11.6c0,1.3,1,2.3,2.3,2.3h20.4v57.6
		c0,1.3,1,2.3,2.3,2.3h12.7c1.3,0,2.3-1,2.3-2.3v-57.6h20.4C605.2,300.1,606.2,299.1,606.2,297.9"/>
	<path class="st1" d="M646.6,284.8c-0.4-0.8-1.2-1.4-2.1-1.4h-11.6c-0.9,0-1.7,0.5-2.1,1.4l-31.5,72c-0.3,0.7-0.2,1.5,0.2,2.1
		c0.4,0.6,1.1,1,1.9,1h12.9c0.9,0,1.7-0.5,2.1-1.4l6.8-15.9h30.8l6.7,15.9c0.4,0.8,1.2,1.4,2.1,1.4H676c0.8,0,1.5-0.4,1.9-1
		c0.4-0.6,0.5-1.4,0.2-2.1L646.6,284.8z M647.4,327.1h-17.7l8.8-20.6L647.4,327.1z"/>
	<path class="st1" d="M375.5,425.2c10-3.9,15.7-12.1,15.7-23c0-6.7-2.3-12.6-6.6-17.1c-5.2-5.1-12.9-7.8-22.2-7.8h-31.9
		c-1.2,0-2.3,1-2.3,2.3v71.5c0,1.3,1,2.3,2.3,2.3h12.6c1.2,0,2.3-1,2.3-2.3v-22.7h12.3l16.9,24c0.4,0.6,1.1,1,1.9,1h14.8
		c0.8,0,1.6-0.5,2-1.2c0.4-0.8,0.3-1.7-0.2-2.4L375.5,425.2z M345.4,393.3h16c5.7,0,12.6,1.7,12.6,9.8c0,6-4.8,9.7-12.5,9.7h-16.1
		L345.4,393.3L345.4,393.3z"/>
	<path class="st1" d="M418.7,377.3h-12.6c-1.3,0-2.3,1-2.3,2.3v71.5c0,1.3,1,2.3,2.3,2.3h12.6c1.3,0,2.3-1,2.3-2.3v-71.5
		C421,378.3,420,377.3,418.7,377.3"/>
	<path class="st1" d="M494.1,429.9c-0.9-0.9-2.3-0.9-3.2-0.1c-5.7,5.4-10.9,8.7-19,8.7c-12.2,0-21.3-10-21.3-23.4
		c0-13.1,9.2-23,21.3-23c6.7,0,12.2,2.5,18.5,8.3c0.5,0.4,1.1,0.6,1.7,0.6c0.6,0,1.2-0.3,1.6-0.8l8.1-9.3c0.8-0.9,0.7-2.3-0.1-3.1
		c-6.1-5.8-14.4-11.8-29.6-11.8c-22.3,0-39.1,16.9-39.1,39.5c0,21.9,17,39,38.6,39c12.5,0,21.6-4,30.6-13.4c0.9-0.9,0.9-2.3,0-3.2
		L494.1,429.9z"/>
	<path class="st1" d="M584.3,450.2l-31.5-72c-0.4-0.8-1.2-1.4-2.1-1.4h-11.7c-0.9,0-1.7,0.5-2.1,1.4l-31.5,72
		c-0.3,0.7-0.2,1.5,0.2,2.1c0.4,0.6,1.1,1,1.9,1h12.9c0.9,0,1.7-0.5,2.1-1.4l6.8-15.9h30.8l6.7,15.9c0.4,0.9,1.2,1.4,2.1,1.4h13.3
		c0.8,0,1.5-0.4,1.9-1C584.6,451.7,584.6,450.9,584.3,450.2 M553.6,420.4h-17.7l8.8-20.6L553.6,420.4z"/>
	<path class="st2" d="M515.5,184.5c-0.1-1.4-2.2-1.3-2.1-3.2c-0.9-0.2-1-1.1-1.6-1.6c-0.4-0.3-1.4,0-1.3-0.8
		c-1.2-0.1-1.5-0.4-2.5-0.4c-2.3-0.2-5.8,0.3-7,2.2c0.1,0.7-0.2,0.8,0.1,1.1c-0.5,0.2-0.6,0.7-0.7,1.3c0.2,0.7,0.7,0.8,0.2,1.8
		c1.2,0.6,0.5,2.8,2.5,3c0,0.4-0.3,0.3,0,0.6c0.5,0.2,0.9,0.1,1.5,0c1.7,2.3,5.6-0.5,8.3,0.5c0.8-0.4,1-1.3,1.9-1.6
		C514.7,185.9,515.6,185.6,515.5,184.5"/>
	<path class="st2" d="M465.4,150.7c0.1-0.3,0.1-0.6,0.2-0.9c-0.2,0-0.5,0.1-0.5-0.1c0-0.4,0.7-0.2,0.6-0.7c0-0.2-0.5-0.1-0.2-0.6
		c0.4-0.1,0.3-0.7,0.8-0.7c0.3-0.7-0.2-1.1,0.6-1.3c-0.1-3.4,3.5-3.1,5.4-2.1c0.5-0.6,0-1.2,1.2-1c0.2-0.8-0.3-0.4-0.6-0.6
		c0.4,0.1,0.4-0.4,0.6-0.5c-0.6-0.1-1.4-0.8-1.2-1.1c1.4,0.4,3.7-1.2,3.2-1.2c-0.1-0.4,0.6-0.8-0.3-0.9c-0.1,0.6-1.7,0.1-2-0.5
		c0.8-0.2,0.9,0.2,1.4,0.4c-0.8-1.7-4.1-1.3-4.6-3.2c-0.6,0.2-0.6-0.2-1.1-0.1c0.1-0.7-0.4-0.8-0.5-1.2c-2.4-0.5-4.3,0.6-5.8,2
		c-0.4,1.8-1.9,3.6-2.3,5.8c-0.5,0.5-0.9,1.3-0.8,1.9c-1.3,1-1.3,2.9-1.6,4.2c-0.2,0.3-0.5,0.5-0.7,0.8l0.1,1.5
		c-0.5,1-0.9,3-1.4,4.3c-0.2,0.4-1.2,3.1-0.8,3.2c-0.1,1.3-0.6,3.1-1,5.1c0.3,0-0.6,4.7-0.8,5.4c-0.4,1.1-0.8,4-0.9,4.5h0
		c-0.3,0.6-1.5,6.1-1.3,6c0,0.4-0.1,1.3-0.2,1.6c-0.5,0.8-0.1,0.9-0.2,1.4c0,0.2-0.1,1.5-0.1,2c-0.1,1.3-0.8,2.7-0.6,4.1
		c-0.2,0-0.1,0.1-0.3,0.6c-3.1,0.7-5.5-0.1-8.3-0.1c-1.2,0-2.3,0-3.1-0.2c-0.3,0-0.8-0.2-2.6-0.2c-0.8,0-2.6,0.2-3.8,0.1
		c-1.2-0.1-2-0.8-3.2-0.8c-0.5,0-1,0-1.5,0c-2.1,0-3.1-0.5-4.7,0.5c-0.8,1.9-1.2,3.6,0,4.9c-0.3,0.1-0.7,0.2-0.6,0.7
		c0.3,0.5,1.8,0.6,0.8,1.5c1-0.2,0.4,0.5,0.6,0.7c0.9,0,1.1,0.8,2,1.1c1.3,0.4,4,0.3,5.9,0.5c2.7,0.3,3.8,0.6,4.9,0.5
		c3.7-0.2,7.7,0.9,11.4,0.1c-0.2,0.5,0.2,0.5,0.6,0.4c-0.2,0.8,0.4,0.7,0.9,1.2c-0.5,0.1-0.8,0.3-1.1,0.6c0.1,1.1-0.2,2.2-0.4,3.3
		c0.2,0.4,0.7,0.3,0.8,0.4c-0.1,0.2-0.4,0.2-0.7,0.2c-0.3,1.8-0.1,3.6-0.2,5.5c0,0.5-0.4,1.1-0.3,1.6c0,0.8,0.1,1.7,0,2.7
		c0,0.5,0.1,1.3,0,1.7c0,0.1-0.4,0.2-0.4,0.3c0,0.8,0.4,2,0.4,2.3c0.1,0.7-0.3,1.7-0.3,2.5c0,1,0.4,1.9,0.4,2.8c0,0.9-0.4,1.7,0,2.2
		c0.1,2.2,0.1,4.4,0.2,6.6c0.1-0.5,1.5,8.1,2.3,10.8c-0.3,1.2,0.3,1.5,0.5,2.2c0.6,1.8,0.7,4.2,1.3,5.7c0.1,0.4,0.5,0.5,0.6,0.9
		c0.3,0.8,0.2,1.7,0.5,2.5c0.5,1.3,1.6,2.5,2.1,3.8c0.3,0.8,0.6,1,0.9,1.7c0.4,0.6,0.6,1.4,0.9,1.8c0.6,0.8,1.1,1.8,1.7,2.5
		c0.4,0,0.5,0.2,1,0.1c-0.2,1,1.4,1.2,1.4,2.4c2.5,0.5,3.3,2.7,6,3c0.4-0.1,0.3-0.6,0.9-0.5c0.4,0.7,1.9,0.8,2.8,0.6
		c0.3-0.2,0.3-0.7,0.5-1c0.8,0,2.2-0.6,2.9-0.7c-0.2,0,0.6-0.7,0.7-1c0.2,0,0.4,0,0.7,0c0-0.4,0.3-0.6,0.7-0.7
		c-0.1-1.4,1.8-1.8,2-3.4c-0.5,0-1.4-1.6-1.1-1.8c-0.1-0.5-0.6-0.8,0.1-1.1c-0.4-0.5-0.5-2.6-0.4-4.2c-0.1,0.5-0.3-0.1-0.7,0.1
		c-0.1,0.6-0.8,0.5-0.4,1.1c-1.1,0.6-3.4,0.9-2.8,2.3c-1.5,0.6-2.5,2.3-4.8,1.8c-2.6-2.1-4.1-5.2-5.1-8.9c-1-0.8-1.1-2.3-1.2-4
		c-0.4,0.1-0.5-0.2-0.6-0.4c0-2.1-1.2-3-1.1-5.3c-1-2.6-1.5-5.4-1.8-8.2c-0.1-1.2-0.2-1.6-0.3-2.5c0-0.3,0.2-0.8,0.1-1.1
		c-0.1-0.3-0.4-0.4-0.4-0.8c-0.1-1.1,0.4-2.6-0.4-3.3l-0.3-11.3c0.5-1.7-0.2-3.2,0.1-4.9c0.1-0.6,0-0.8,0-1.3c0-1.7,0.2-3.5,0.3-4.9
		c0-2,0.7-3.8,0.5-5.5c0.6,0.2,0.1-0.7,0.7-0.5c0.5,0,0,0.6,0.7-0.1c0.3,1,2.2,0,3.3-0.1c0.6,0,2.3,0.4,2.6,0.4c1.1,0,2-0.4,2.7,0
		c0.4-0.2,0.5-0.8,1.1-0.9c-0.2,0.5-0.2,0.3-0.1,0.8c0.5,0,0.6-0.4,1-0.4c2.8,1,7.2,0.7,10.5,0.7c0.4-0.8,1.1-0.5,1.8-0.8
		c-0.2,0.6-0.7,0.1-0.8,0.7c1.8-0.3,3.8,0,4.9,0.7c1.6-0.3,3.3,0.6,5,0.2c-0.1,0.1-0.5,0.6-0.1,0.6c0.3-0.1,0.9-0.8,1-0.4
		c-0.2,0-0.4,0.1-0.4,0.3c1.2-0.1,1.3,0.8,2.6,0.6c-0.2,0.7,0.5,0.5,0.2,1.1c0.5-0.2,0.6,0.1,1,0.1c1.5,1.7-0.7,7.3-1.3,9.6
		c-0.4,1.4-2.8,11.2-3.1,12.6c-0.3,1.2-0.8,2.5-1,3.4c-0.1,0.3,0.2,0.3,0.1,0.6c0,0.1-0.3,0.2-0.4,0.5c0,0.6,0,1.3,0,2
		c-0.1,1,0.1,1.4,0.1,2.2c0,2.7,0.5,11.2,2.3,12c0.1,0.9,0.6,1.4,0.8,2.1c0.8,0.1,0.6,0.3,1.6,0.4c0.6,0.1,1,0.1,1.4,0.2
		c0.4-0.2,2.7,0,2.8-0.1c0.6-0.2,0.9-1.1,1.1-1.8c0.5-1.6,3.1-4.4,0.9-5.4c0.2-0.6-0.3-0.7,0.1-1.1c-0.2-0.1-0.4-0.1-0.5-0.3
		c0.4-0.4-0.2-0.7-0.2-1.2c0-1.2,0.6-9,0.3-10.1c0.7-1.2,1-2.5,1.4-4c0.1-0.2-0.2-0.3-0.1-0.6c0.1-0.5,0.5-0.9,0.6-1.5
		c0.3-1.1,2.4-10.8,2.7-12c1-4.5,2.1-9.4-0.4-12c0.3-0.3,0-0.2,0.1-0.6c-1.1-0.6-1.4-1.8-2.5-2.3c-0.2-0.9-1-0.8-1.7-1.1
		c-0.2-0.1-0.4-0.5-0.6-0.6c-1.6-0.7-5.2-0.3-7-0.7c-0.4-0.1-0.8-0.5-1.1-0.5c-1.8-0.4-3.9,0-5.6-0.7c-0.4,0.2-0.9,0.3-1.5,0.3
		c-1-0.6-2.9-0.5-4.1-0.6c-2.6-0.4-6.9-0.3-8.9-0.4c-0.2,0.2-0.2,0.6-0.6,0.7c-0.1-0.2-0.1-0.6-0.2-0.8c-3,0.3-5.6-0.4-8.2,0.3
		c-0.4-1.4-2.9-0.1-4-0.8c0.1-0.4,0.1-0.8,0.2-1.1c-0.1-0.4,0.6-1.7,0.2-2.7c-0.4-0.1-0.4-0.6,0.1-0.8c-0.2,0,0.3-1.2,0.1-1.9
		c-0.1,0.2-0.3,0.3-0.6,0.4c-0.4-1.3,1.3-1.3,1.1-2.9c-0.1-0.4-0.3-0.3-0.1-0.3c0.3-0.9,0.1-3.3,0.4-3.8c0.2-0.2,0.3,0.1,0.4-0.4
		c0.1-0.5,0.3-1.2,0.1-1.7c-0.1,0.2,0.8-6.1,1.2-6.8c-0.3-0.2-0.2-0.7-0.3-1.1c0.9-0.8,0.6-1.4,0.7-1.9c0.2-1.5,2-8,2.1-8.1
		c0.5-1.3,0.3-2.9,0.7-4.4c0.1-0.3,0.4-0.6,0.5-0.8c0.2-0.5,0-1.1,0.2-1.6"/>
	<path class="st2" d="M282.7,214.5c0.4,2-1.8,1-2.3,1.9C280.1,215.9,281.8,214.7,282.7,214.5"/>
	<path class="st2" d="M289.1,287.2c-0.6-0.2-0.8,0.1-1.3,0.1c0-0.4,0.7,0.1,0.5-0.5c-1.1-0.2-2.2,0.8-3.7,0.7
		c-0.4,0-0.7-0.5-1.2-0.6c-0.4-0.1-0.8,0.2-1.2,0.2c-1.6,0-3.2-0.5-3.5-1.1c0.7-0.5,1.7,0,2.3-0.1c-0.2-0.5-1,0-0.4-0.7
		c-1.2-0.4-1.9-0.6-2.6-0.5c-0.3-0.3-0.6-0.6-0.5-1.2c-1.2-0.1-1.4-0.4-2.7-0.7c0.6-0.9-1.2-0.7-0.8-1.9c-0.3-0.2-0.4-0.5-0.9-0.6
		c0.1-1-1-1.1-0.6-2.3c0.7,0,0.6,0.6,1.4,0.4c0,0.2,0,0.3,0,0.5c1,0.4,2,0,2.5,0.9c0.8-1.1,2-0.1,3-0.1c0.4,0,0.6-0.2,1-0.2
		c1-0.1,2.1,0.2,3.1,0.1c0.9-0.1,2.1-0.6,3-0.9c2.3-0.8,4.1-2,6.2-3.2c0.8-1.1,1.8-1.7,2.8-2.7c0.9-0.8,2.8-3.2,3.5-4.4
		c0.1-0.2,0-0.6,0.1-0.8c0.2-0.6,1-1.7,1.2-2.6c0.1-0.3-0.1-0.6-0.1-0.8c0.1-1.3,0.6-2.3,0.6-3.3c0-0.6-0.3-1.1-0.3-1.8
		c-0.3-2.4-0.5-4.7-1.2-6.9c-0.5-1.5-1.3-3-1.7-4.5c-0.1-0.5-0.1-1-0.2-1.5c-0.2-0.6-0.6-1.6-1.1-2.3c0.2-0.5-0.2-0.6-0.1-1.1
		c-0.2-0.2-0.4-0.4-0.6-0.7c-0.8-3.8-2.3-7-3.1-10.8c0-0.4,0.1-0.6,0.2-0.8c-0.3-0.1-0.6-0.8-0.5-1.7c-0.4-1.6-0.9-3.8-1.1-5.9
		c0-0.3,0.2-0.6,0.2-0.6c0-0.5-0.3-1-0.4-1.5c-0.2-2.1,0.1-4.1,0.2-6c0.1-2-0.4-3.9,0.3-5.6c-0.5-1,0.7-2.2,0.1-2.7
		c0.5-0.2,0.3-0.8,0.5-1.6c0.2-0.7,0.8-1.6,0.3-1.7c1.1-2.1,1.6-4.6,2.6-7.1c0.1-0.2,0.5-0.4,0.5-0.6c0.1-0.2,0-0.6,0.1-0.8
		c0.3-0.6,0.8-1,1.1-1.5c0.3-0.5,0.1-0.9,0.4-1.4c0.5-0.7,1.1-1.7,1.7-2.8c0.4-0.7,1.1-1.3,1.5-2c0.4-0.6,0.5-1.1,1-1.7
		c0.3-0.4,0.5-0.6,0.9-1.1c0.7-0.8,1.8-1.8,2.5-2.7c0,0,0.1-0.4,0.2-0.5c0.1-0.1,0.4,0.1,0.5,0c0.2-0.2,0.2-0.6,0.4-0.8
		c1-1.1,2.3-1.9,3.5-2.5c0.2-0.3,0.3-0.6,0.4-0.9c0.8,0.1,0.9,0.9,1.6,0.3c1.1,0.9,2.9,1.2,3.2,2.7c1.5,0,1.5,1.2,2.3,1.8
		c-0.2,1.1,0.1,1.7-0.2,2.6c0.4,0.6,0.4-0.6,0.8-0.1c-0.2,0.4-0.1,1.2-0.9,0.9c-0.1,1.2-0.6,1.9-0.9,2.8c-0.2,0.1-0.4,0.1-0.7,0.1
		c-0.4,1.7-1.5,2.6-2,4.2c-0.8,0.2-1.2,0.8-1.6,1.5c-0.7,0-0.9,0-1.3,0.1c-0.6,1.1-1.5,1.9-2.4,2.7c-0.1-1.4,2-1.8,2-3.7
		c-1.1,0.4-1.6,2.3-2.9,1.9c-0.4,0.4-0.7,0.9-0.9,1.4c0,0.6,0.5-0.5,0.5,0c-0.2,1-0.8,0.4-1.2,1c-0.2,0.5,0.5,0.2,0.3,0.7
		c-1.7,3.7-3.8,7.8-4.9,12.7c-0.5,2.2-0.7,4.8-0.8,6.9c-0.1,2-0.1,4.1,0.1,6c0.2,2.1,0.5,4.2,1.3,5.9c0.3,2.3,0.7,4.8,1.7,7.3
		c0.3,0.7,0.4,1.7,0.8,2.7c0.4,1.3,1.2,2.5,1.6,3.8c0.1,0.2-0.1,0.4-0.1,0.6c0.2,0.7,0.7,1.3,1,2c0.3,0.8,0.4,1.6,0.6,2.3
		c0.4,1,0.5,1.9,1,3.2c0.5,1.3,1.2,2.9,1.4,4.8c0,0.3,0.4,0.6,0.4,0.8c0,0.1-0.2,0.4-0.2,0.5c0.2,2,1,4.5,0.9,7
		c-0.1,2.2-1.1,5-1.6,6.8c-0.1,0.2,0.1,0.7,0.1,0.7c-0.1,0.2-0.4,0.3-0.5,0.6c-0.2,0.5,0.1,1.2-0.6,1.6c0,0.4-0.1,0.8-0.1,1.1
		c-0.7,0.8-1.3,1.7-1.6,2.9c-1.6,2-3.4,3.6-5.5,5.2c-0.3,0.2-0.7,0.5-1,0.7c-0.7,0.5-0.9,0.7-1.7,1.2c-1.2,0.6-2.5,1.9-3.9,1.8
		c-1.2,0.1-2.1,0.2-2.8-0.1C290.8,286.3,289.2,286.7,289.1,287.2"/>
	<path class="st2" d="M437.5,237.4c-0.2-0.5,0.6-0.6-0.1-0.7c0.6-1,0.9-1.6,1.4-1.9c0-0.4,0-0.8-0.3-1.1c0.7-0.8,0.7-1.1,1.4-2.1
		c-0.9-0.2,0.4-1.2-0.6-1.7c0.1-0.3,0-0.6,0.3-0.9c-0.7-0.6,0-1.3-1-1.9c-0.5,0.4-0.1,0.8-0.7,1.2c0.1,0.1,0.2,0.2,0.3,0.3
		c-0.4,0.8-1.4,1.2-1.2,2.1c-1.2-0.3-1.5,1.1-2,1.7c-0.2,0.3-0.5,0.3-0.8,0.5c-0.8,0.6-1.3,1.4-2,2c-0.7,0.5-1.8,0.9-2.6,1.3
		c-2,0.9-3.7,1.4-5.8,1.9c-2.2,0.2-4.3,0.2-6.1,0.1c-1.4-0.1-2.6-1.5-4.1-1.5c-0.8-0.9-2.1-1.2-3-2c-2.2-2.1-2.9-5.5-3.9-8.8
		c0.4-0.9-0.4-1.4-0.5-2.2c-0.1-0.4,0.2-1,0.1-1.5c-0.1-1.4-0.7-2.3-0.2-3.5c-0.3,0-0.4,0-0.3-0.3c0.2-2-0.2-3.6,0-5.4
		c0.1-1,0.6-2.1,0.6-3.2c0.1-1.1,0.3-1.6,0.6-2.4c0.4-1.2,0.4-2.6,0.9-3.8c0.2-0.6,0.7-1.1,0.8-1.6c0.4-1.4,1-2.6,1.1-3.9
		c0-0.4-0.2-0.8,0-1.4c-0.6-0.1-0.5-0.8-1.2-0.8c0-0.5-0.7,0.6-0.7,0c0.5-0.8-0.7-0.7,0-1.9c-0.4-0.4-1.5-0.1-1.3-1
		c-0.8,0-1.1,0-1.5-0.6c-0.6,0.6-0.8-0.3-1.4-0.3c-2.6,0.7-4.2,2.4-4.4,5.5c-0.2,0.4-0.6,0.6-0.8,1.1c-0.2,2.6-2.4,6.4-2.1,8.8
		c-1.9,1.5-2.7,4.1-3.7,6.5c-0.4,0.1-0.5,0.4-0.8,0.6c-0.7,2-1.4,3.1-2.2,5c-0.8,0.1-0.9,0.9-1.2,1.3c-1,1.3-2.7,4.9-4.1,4.9
		c-3,0-5.8-19.8-6.4-19.6c0-1.1-0.5-2.6-0.6-3.7c-0.8,0.1-1-0.2-1.6,0.1c-2.5-2.1-5.6,1-6.8,3.1c0.2,0,0.4,0,0.3,0.3
		c-0.5,0.1-0.8,0.4-1.3,0.6c-0.5,1.5-1.4,2.7-2.4,3.7c0,0.7-1.3,2.6-1.5,2.8c-1.1,0.3-2.3,2.5-2.5,2.5c-0.3,0.6-0.5,0.8-0.5,1.2
		c-0.2,0.3-0.7,0.7-1.1,0.8c-0.4,0.8-1.9,3-2.2,3.3c-0.4,0.2-0.9,0.3-1,0.4c-0.2,0.3-1.1,1.3-1.4,1.6c-0.4,0.1-3.5,4.5-3.7,4.7
		c-0.2,0.2-2.4,2.5-3.8,3.4c0,0.2-4.7,5.2-8.6,7.7c-2.6,1.5-6.9,5-12.8,2.1c-0.9-0.9-2.6-1.9-2.8-2.8c-0.2-0.8-0.3-1.8-0.4-2.8
		c0-0.3-0.1-1.6-0.2-1.9c-0.1-1.4,0.2-2.3,0.6-3.5c0.3-1.9,1.1-2.9,2.8-4.4c1.1-0.3,3.4-1.6,4.4-0.9c0.6-0.4,1.6-1.2,2.2-0.8
		c6.1-4.4,13.8-6,19.2-11.2c0.7-0.7,3.1-2.5,3.3-3c0.6-1.2,2-3.6,2.4-3.7c0.2-0.7,0.9-2.1,1.3-2.4c1.2-5.1,3-10-1-12.1
		c0-0.3,0.3-0.4,0.3-0.7c-1.7-0.5-3.8-3.1-5.4-3c-0.2-0.4-2.1-0.3-3.3-0.5c-7.5,1.9-10.3,5-15.7,8.7c0,0.4-2.2,1.6-2.1,2.1
		c-1,0.9-2.4,1.9-3.4,3c-0.1,0.1-0.4,0.5-0.5,0.6c-0.4,0.5-0.8,0.7-1.1,1.2c-0.3,0.4-0.8,1.3-1.1,1.7c-0.3,0.4-1.3,1-1.6,1.4
		c-0.5,0.5-0.9,1.3-1.2,1.7c-0.2,0.3-0.2,0.4-0.2,0.5c-0.3,0.3-0.8,0.7-1,1c-0.3,0.5,0,1.3-1,1.4c-1.2,3.2-3.6,5.3-4.1,8.4
		c-1.3,1.3-0.3,3.5-1.6,4.8c-0.4,1.7-0.6,2.7-1.4,3.8c0.1,2.3-0.5,4.5-0.7,7c-0.1,1.2,0.5,2.3,0.7,3.3c0.3,1.6,0.5,3.7,1.2,4.7
		c0.5,0.8,1.1,1.2,1.7,2c1.2,1.4,2.3,3,3.1,3.4c0.9,0.5,1.8,0.6,2.1,1.4c3.6,0.7,6.4,1.5,11,0.8c2.7-0.6,7.4-2.4,8.2-2.9
		c1.8-1.2,5.4-3.5,5.8-4.3c-0.4,0,2.3-1,1.9-1.6c0.1-0.6,2.5-1.8,3-2.1c0.1-0.3,1.1-1.2,2.5-2.3l0.2,0.3c0.1-0.2,0.5-0.7,1.2-1.4
		c1-0.8,3.6-3.6,4.3-4.4c0,0,1.4-2,1.6-2.3c0.4-0.5,2.7-3.1,5.4-6.3c0.1-0.1,0.2-0.3,0.3-0.4c0.7-0.7,2-2.5,2.4-2.6
		c0,0.6,1.5,2.5,1.2,3.1c0.4,0.9,0.9,1.7,1.1,2.5c0.6,0.9,0.7,1.5,1,2.8c0.6,0.1,0.4,1.3,1.1,2.2c2.2,3.4,2.9,5.8,3.2,6.1
		c0.4,0.7,2.8,3.9,3.2,3.8c1.5,1.3,4.3-0.4,6.2-2.2c1.1-1,7.4-8.5,8.4-10.4c0.1-0.2,0.2-0.5,0.2-0.6c0.1-0.1,0.3-1.1,0.4-1.1
		c0,0,0.3,0.3,0.3,0.6c0.1,0.4,0.1,0.8,0.1,0.8c1.4,6.2,4,11.3,8.7,14.4c1.7,2.8,6.4,3.5,8.8,5.1c1.1-0.2,1.4-0.3,2,0l0,0.1
		c0.1,0.1,0.2,0.1,0.3,0.2c0.6,0.1,1.2,0.1,1.7,0.2c0.1,0,0.1,0.1,0.1,0.1c1-0.3,1,0.4,2.3-0.1c0.1,0,0.1,0,0.2,0
		c0.8,0.1,1.9-0.1,2.9-0.1l0-0.1c0.3,0,0.5-0.1,0.8-0.1c0.8-0.1,1.4-0.4,2.2-0.6c1.2-0.3,2.5-0.2,3.4-1.2c0.9-0.7,1.5-0.9,1.8-1.5
		c-0.4-0.1,0.9-0.8,1.3-0.6c0.3-0.5,0.6-0.4,0.9-0.8c-0.2-0.3-0.4,0.5-0.6,0c0.6-0.8,2-0.8,2.9-1.8c0.2-0.3,0.2-0.8,0.5-1.2
		c0.2-0.3,0.7-0.3,0.9-0.6c1.1-1,1.9-2.3,1.7-2.9C438.5,236.2,438.1,237.1,437.5,237.4 M329.4,212.6c1.8-2.4,7.1-6.6,7.1-6.6
		c1.6-2.3,1.4-2.2,5-4.5c0.4-0.3,0.7-0.6,1.1-0.9c0.4-0.2,0.7-0.4,1.1-0.7c-0.2-0.1,0.5-0.2,0.9-0.7c0.8,0,0.6-0.5,2.1-1.7
		c1.4-0.6,2.8-2.2,4.4-2.2c0.4,0.1,1.4,0.9,0.6,3.4c-0.7,1.6-0.7,3.3-2.2,5c-0.8,1-2.2,2-3,3c-0.7,1-2.5,1.7-4.2,3
		c-1.3,1-3.1,1.9-4.5,2.8c-1.7,1.1-3.1,1.5-4,1.9c-0.5,0.6-4.7,2.6-5.4,2.9C327.2,217.5,327.2,216.3,329.4,212.6"/>
	<path class="st2" d="M286.9,213.8c-0.2,0.2-0.4,0.1-0.6,0.1c-0.3-0.6-1,0.2-1.1-0.4c-0.7,0.4-0.9,0.4-1.4,0.8
		c-0.2-0.3-0.5-0.3-0.7-0.3c-0.2,0.3-0.6,0.5-1.2,0.8c0.1-0.1,0.1-0.2,0.2-0.2c-0.1,0.1-0.4,0-0.7,0c0.3-0.3,0.7-0.5,0.8-0.8
		c-0.4-0.2-1.2,0.3-1.9,1c-0.2,0.1-0.2,0.4-0.4,0.6c-0.3,0.2-0.6,0.1-0.8,0.3c-0.6,0.5-0.7,1.4-1.2,1.8c-0.3-0.2,0.2-0.2,0-0.4
		c-0.2,0.2-0.2,0.4-0.5,0.6c0.1,0.2-0.1,0.5-0.2,0.7c0,0-0.1,0.1-0.1,0.1c0,0-0.1,0-0.1,0c-0.2,0.1-0.5,0.3-0.7,0.6
		c-1,0.6-2.4,1.4-2.5,2.1c0.2,0,0.4,0,0.6,0c-0.1,0.2,0.3,0.6-0.3,0.6c-0.2-0.4-0.5-0.1-0.9-0.5c-1.6,1.8-3.6,3.1-5.5,4.6
		c-0.3,0.3,0,0.2-0.1,0.6c-2.4,1.3-3.5,4.1-6.3,4.9c-1.1-5.9-2.8-11.3-3.4-17.6c2.4-3.6,6.5-8,5.3-13c1.4-3.3-1.3-4.4-2.4-6
		c-1.1-1.7-3.1-2.7-5.8-2.6c-5.1,3.4-7.6,10.9-6.7,17.1c-1.4,1.8-4.1,3.5-5.2,5.5c-5.6,4.4-11.4,8.9-17.6,12.7
		c-3.4,1.6-6.1,3.3-9.3,4.9c-1.7,0.9-3.7,1.7-5.6,2.5c-1.7,0.7-2.6,0.8-4.2,1.2c-6.8,1.9-17.1,5.4-24.9,4.6c-1-0.6-2.3-0.8-3.3-1.3
		c0-0.2-0.2-0.3-0.1-0.6c-1.1,0.2-2-1.8-2.2-2.9c-0.6-3.4,2.9-9.2,4.4-9.8c2.8,0.1,4.2-1.7,6.5-1.7c2.3-1,4.7-1.9,7.3-2.6
		c0.4-0.2,0.5-0.5,1-0.3c4.5-1.7,8.2-3.3,11.5-4.3c0-0.3,10.6-4.9,12-5.8c4.8-1.7,8.9-4.6,13.2-6.4c0-0.1,0.5-0.6,0.5-0.1
		c-1.4,1.5,1.8-0.2,4.2-2.8c1.2-1.4,3.1-3.3,3.2-4.6c0.1-1-0.7-1.8,0.1-2.7c-0.7-0.3-0.6-1.4-0.9-2.1c-2.1-1.9-3.9-4.3-6.5-5.3
		c-1-0.3-2.7-0.9-4-0.9c-0.8,0-1.5,0.4-2.3,0.5c-10.6,0.1-17.4,3.6-25,7.5c-0.4,0.4-0.2,0.6-0.4,1c-2,0.3-4.1,2-5.8,3.1
		c-3.9,2.1-7.1,5-10.7,7.6c-4.2,4.2-8.8,8.1-12,13.4c-0.7,0.5-1.6,0.8-2.4,1.3c0.4-0.1,0.6,0.1,0.4,0.5c-1.4-0.4-5.7,1.2-8.3,1.5
		c-1.1,1.6-4.2,0.6-5.1,1.9c-1.9,0.2-13.5,3.4-14.2,3.5c-1,0.2-21.6,5.1-22.2,5.1c-1.1,0.8-12.7,2.7-12.6,2.6
		c-2.8,0.4-8.5,2-8.4,1.5c-0.6-0.1-13.4,1.3-18.9,3.1c-0.5-0.8-1.4,0.3-2.2,0.3c-0.4-0.7-6.9,0.2-6.1,0.7c-0.8-0.6-0.5,0.8-1.3,0.1
		c0-0.2,0.4-0.1,0.4-0.5c-0.9,0.1-1.5,0.4-2,0.8c0.1-0.2,0.3-0.3,0.4-0.5c-11.8,1.1-26.8,1.3-35.2-5c-0.4-0.1-0.4,0.3-0.8,0.1
		c-0.3-0.1-0.4-0.5-0.9-0.5c-1.4,2.3,0.4,3.5,1,4.8c-0.5,0.1-0.5-0.3-0.8,0c-0.2,1.5,1.8,1.7,1.2,2.8c6.5,4,14.9,6.6,23.6,6.1
		c0,0.3,0,0.5,0.1,0.6c2.4-0.2,6.9-0.6,6.9-0.4c2,0.4,5.2,0.1,7.9-0.7c0.2,0.8,4-0.8,5.5-0.7c-0.1,0.1-0.4,0.6,0.1,0.5
		c1.6-0.4,6.4-1,6.6-0.7c0.5,0.3,6.2-0.2,5.1-0.7c1.1-0.3,1.7-0.1,2.5-0.6c-0.5,0,5.6-1.4,5.1-0.6c0.7-0.1,1.4-0.3,2-0.5
		c0.3-0.4,10.5-1.5,10.9-1.1c-0.5-0.9,2.5-1,1.3-0.5c0.9-0.2,7.4-1.1,7.3-1.7c1.2-0.2,7.7-1.1,7.9-1c0.4-0.2,6.4-2.3,6.4-2.2
		c2.9-1,10-2.5,10.7-2.3l4.1-0.6c-0.6,0,9.1-3.1,9-2.3c0.7-0.1,1.3-0.4,1.8-0.6c0-0.4,6.7-2.3,6.5-1.7c0.7-0.1,1.1-0.4,1.8-0.5
		c-0.1,2.1-0.2,5.1,1,6.5c0,0.3-0.5,0.2-0.4,0.6c1.4,3.5,3.7,7.1,6.6,9.6c5.4,3.4,14.4,2.7,21.2,1.8c6.1-1.4,11.5-3.2,16.8-5.3
		c2.4-0.9,4.9-2.3,7.3-3c3.2-2.2,6.7-4,10.3-5.8c3.6-3.1,10.7-5.5,13.8-9.1c1.9-1,4.3-4,6.5-4.7c1.7,6.4,3.1,12.5,3.9,19.4
		c-0.6,0.7-1,1.7-1.5,2.4c0.6,0.2,0.6-1.1,1-0.5c-1.3,1.4-1.7,3.9-3.2,5.1c-0.1,0.3,0.1,0.4,0.1,0.6c-0.2-0.1-0.3-0.2-0.6-0.2
		c-1.6,3.8-4,9.8-1.4,13.2c0.3,2.8,1.9,4.3,3.3,6c0.7-0.1,0.7,0.3,1.3,0.3c0,0.2,0,0.3,0,0.5c0.9-0.1,1.6,0.5,2,1.2
		c1.4,0.1,2.2-1.5,3.3-0.6c1.3-1.1,2.7-2.1,3.7-3.5c0-1.9,1.3-4,1.7-5.6c1.2-6-0.1-12.2-0.3-17.2c1.8-3.4,4.7-5.8,6.6-9.3
		c0.2,0.2,0.6,0.1,0.8-0.1c-0.4-0.8,0.7-1.4,0.9-2.1c2.4-1.1,3.1-4.1,5.7-5.1c0.1-0.6,0.5-0.8,0.3-1.3c1.6-1.1,3.1-2.3,4.3-3.8
		c-0.2,0-0.5,0-0.7,0c0.3-0.3,0.7-0.7,1.2-1.3c3.2-2.3,3.1-2.9,1.6-2.9c0,0,0.1-0.1,0.1-0.1c0.1-0.2,0.2-0.4,0.3-0.5
		c0.4-0.4,1.3-0.4,1.2-1.2c0.6,0.2,0.9-0.4,1.4-0.7c0.1,0.1,0.1,0.2,0.2,0.2c0.3-0.4,0.5-0.1,0.8-0.4
		C287.7,213.8,287.2,214.2,286.9,213.8 M190.1,212c2.6-2.8,11.5-9.1,11.8-9l1.3-1.4c0.6-0.2,3.2-1,4.1-1.4c2.8-1.4,5.6-3.1,8.8-3.6
		c1.4-0.9,3.1-1.6,4.6-1.3c2.2-1.4,5-0.5,7.6,0.1c-6.8,5.8-15.2,9.6-23.1,13.6c-1.2,0.4-9.3,3.8-12.6,4.6
		C190.1,214,188.5,213.2,190.1,212"/>
	<path class="st2" d="M723.5,243.6c0,0.3,0.1,0.6,0.1,0.8c-0.4-0.3-0.7,0.2-1.2,0.2c0-0.4,0.6-0.5,0.4-1.1c-0.2-0.2-0.8,0.1-0.9-0.3
		c0.7-0.5,0.4-0.2,1.2-0.2c0-0.3,0.5-0.2,0.3-0.7c-0.7-0.3-1.8,1-2.8,0.4c0.4-0.1,0.3-0.5,0.4-0.7c-1.1-0.2-2.3,0.5-3,1.1
		c-0.7-0.4-1.7,0-2.4,0.6c0.5-0.2,0.4,0.4,1.1,0.1c0.1-0.3,0.5-0.5,0.8-0.7c0.1,0.4,0.8,0.2,0.9,0.5c-0.8,0.3-1.7,0.6-2.9,0.7
		c0-0.2,0.2-0.3-0.1-0.5c-0.9,0.3-1.2,0.2-2.1,0.2c0.2-0.1,0.5-0.1,0.5-0.3c-0.8,0-0.7,0.2-0.8,0.5c-1.4-0.1-2.3,0.6-3.1,1.3
		c-0.1-0.3,0.2-0.4,0.3-0.6c-0.9,0.1-1.9,0.5-2.6,1.2c-0.2-0.2-0.7-0.1-0.8-0.5c-4.8,1.7-10.6,1.8-14.9,3.5c-1.3-0.3-3.2,0-4.6,0.6
		c-3.3-0.4-6.2,0.8-9.1,1.1c-0.5,0-1.2,0.1-1.6-0.4c-1.5,0.6-3-0.1-4.6,0.5c-3.4-0.2-6.8,0-10.1,0.1c-2.1,0-4-0.4-6-0.6
		c-1.7-0.1-3.3,0-4.7-0.3c-0.5-0.1-1-0.5-1.5-0.6c-0.3-0.1-0.9,0.2-1.2,0.1c-1.7-0.6-4.1-0.9-6.1-1.2c-1.3-0.9-3.5-0.7-4.6-1.8
		c-2.2-0.4-4.1-1.1-5.7-2.3c-3.8-1.5-7.2-3.6-10.2-6.1c-0.4,0.1-0.5-0.2-0.9-0.2c-0.3-0.8-0.9-1.2-1.7-1.2c0.4-0.6-0.4-0.4-0.3-1.1
		c-1.6-0.5-2.1-2.3-3.5-3.1c-1.4-2.4-4.2-4.7-5.5-7.9c-0.4,0.1-0.6-0.1-0.7-0.3c-1.4-3.4-3.7-5.4-4.5-9.4c-0.2-0.1-0.4-0.1-0.6-0.3
		c0.1-1.3-1.3-2.6-1.2-4c0-0.3-0.5,0-0.5-0.2c0-1.8-1-1.9-0.9-4.1c0.7,0.2,0.3-1.1,0.5-1.5c0.3,0.1,0.2,0.5,0.5,0.1
		c0.2-0.6,0.2-1.2,1-1.7c-0.4-0.8,1.3-1.5,1-2.7c1.4-0.5,0.4-2.5,2.1-2.8c0-0.3-0.2-0.3-0.3-0.6c0.2-0.3,0.4-0.3,0.7-0.1
		c0.2-1.6,2-2.1,1.3-3.6c1.8-0.7,0.7-3.4,2.5-3.5c0.3-0.8,0.1-2,0.9-2.5c0-0.5-0.4-0.5-0.3-1.1c0.1-0.3,0.3-0.6,0.6-0.8
		c-0.3-1.8,2.5-4.8,2.3-6.6c0.4-0.6,1.3-3.1,1.4-3.4c1.3-2.2,1.2-3.8,1.4-4.5c-0.2,0,0.7-0.7,0.7-0.9c0-0.7,0.4-1,0.5-1.7l0.5-1.2
		l0.2-1.3l1-4.1c-0.1,0-0.2,0-0.2-0.1c0-0.4,0.3-1,0.4-1.6l0-0.3l-0.1-0.1l0.5-3c0.2-2.9,1-3.6,0.9-7c-0.1-0.7,0.1-2.6,0.1-3.2
		c0-1-0.4-4.3-0.3-5.3c0-1.8-0.4-2.4-0.5-2.8c-0.4-2.3-0.3-0.6-1.3-2.9c-0.1-0.4-0.1-1-0.4-1.5c0-0.5-0.7-0.5-0.8-0.9
		c0.1-0.7-0.4-0.8-0.7-1.5c-0.6-1.3-0.9-2-1.7-2.4c0-0.3-1.5-2-1.6-2.3c-1.4-1-1.4-0.6-2.9-1.5c0-0.2,0-0.3-0.1-0.5
		c-2.3-0.5-4.1-1.3-6.9-0.7c-0.1,0.5-0.4,0.8-0.9,1c-0.3,0.1-0.3-0.4-0.7-0.2c-1.5,0.4-2.2,1.3-3.6,1.7c-2.3,2.6-3.4,6.1-5.1,9.1
		c0.4,0.1-0.3,0.6,0,1.2c-1.1,1-0.8,3-1.7,4.2c0,0.2,0.1,0.3,0.2,0.5c-0.8,1.8-1.2,3.9-1.5,5.9c-0.3,2.2-1,4.6-1,6.8
		c-0.1,2.2-0.6,3.8-0.6,5.9c0,1.3,0,2-0.3,2.9c0.5,0.6-0.1,1.3-0.1,1.9c-0.2,3.7-0.2,7.5-0.3,11.4c0,0.2-0.2,0.3-0.3,0.4
		c0.3,2.3,0.4,4.6,0.1,7.3c0.7,0.9,0.3,2.3,0.3,3.3c0,1.3,0.4,2.4,0.5,3.6c0,0.1-0.3,0.3-0.3,0.6c-0.1,3.7,1.1,7.9,1.4,12.4
		c-1.2,1.7-1.3,4-3.2,5.1c-0.5,1.6-1.9,2.4-2.8,3.8c-1.3,0.7-1.5,2.9-2.9,3.6l0,0c0,0-0.1,0-0.1,0c-0.1,0-0.1,0.1-0.2,0.1l0,0
		c-1.7,1.4-6.8,7.1-7.7,6.3c-0.6,0.2-2.7,1.9-4.6-1.6c-0.3,0-2.8-5.8-3.2-7.1c-0.3-3.3-0.7-6.2-0.9-9.5c-0.1-0.9-0.4-1.6-0.6-2.1
		c0.7-2.3,0.6-2.5,1.1-6.1c0,0,0.3-1,0.2-1.7l0.2-1.3c0,0,0.1-2.9,0.1-2.9l-1.6-0.4c0,0-1.9-0.1-2.9,0.1c-1.1,0.1-0.6,0.1-1.5,0.2
		l-2.6,0.1c0,0-0.6,0.5-2.3,0.6l-1.6,1.8l-3,0.4l-5.7,2.2l-8.8,5.6l-4.6,3c-1.4,2-4,3.4-4,3.4l-3.4,3.2c1.1-0.9-3,4.2-5.5,6.4
		c-1.2,2.8-7.4,14-6.1,14.5c-1.6,7.3-2.3,7.8,4.7,14.7c4.8,4.8,12.8,1,15.7,0.1c1-0.6,1.8-1.3,2.5-1.9c6.8-2.8,8.3-4.5,14.1-11.3
		l0,0.6l1.4-3.4c3.5-3.5,2.8-5.9,6.4-10c0.1-0.2,0.2-0.4,0.4-0.6c0,0.1,0,0.1,0.1,0.2c0.6,1.4,1.7,4.2,2,5.7c1,2.8,5.7,8.2,7,9.1
		c3.3,2.3,7.4,0.9,8.8,0.3c3.2-1.2,8.1-7.9,8.7-8.2l-0.1-0.5c0.3-0.3,0.7-0.7,0.9-1.2c2.2-1.7,4.1-5.7,4.6-5.6
		c0.8-0.6,1.1-1.3,2.1-1.4c-0.3-0.5,0.8-1.9,1.5-2c0,0,0.7,0.8,1.1,0.3c1,1.5,1.6,3.6,2.3,5.5c3,4.6,5.4,10.1,9.1,13.8
		c1,2.5,2.4,2.3,3.4,4.6c1-0.1,1,1.2,1.7,1.4c0.3,1.3,2.3,1.8,3.3,2.9c-0.2,0.4,0,0.2,0.1,0.7c0.6-0.2,0.4,0.7,1.1,0.3
		c0,0.2-0.2,0.3-0.1,0.5c0.4,0.1,1,0.1,1.3,0.4c3.4,3.4,7.7,5.5,12.3,7.3c-0.1,0.1-0.3,0.1-0.3,0.2c2.5,1.1,4.9,2.2,7.6,3.1
		c0.1-0.6-1-0.4-0.6-0.7c0.7,0.2,1.3,0.3,1.7,0.9c0.3-0.6,0.1,0.2,0.4,0.1c3.3-0.1,6.2,2,10,1.8c0.2,0.6,1.6,0.3,1.2,1.1
		c0.8-0.6,2.4,0.5,2.9-0.7c0.8,0.7,1.2,0.2,2.3-0.1c0.1,0.7,0.9,0.6,1.3,0.9c-0.1-0.3,0.6-0.2,0.8-0.3c1.4,0.6,3.5-0.1,4.4,0.7
		c-0.9,0-1.5,0.1-2.2,0.6c0.7,0.2,2-0.2,2.6,0.2c0.4-0.4-0.5-0.8,0.2-1.1c0.2,0.8,0.3-0.2,0.7-0.1c0.2,0.2,0.5,0.3,0.6,0.7
		c-0.4,0.1-0.8,0.1-1.2,0.2c0.9,0.6,2.6,0.2,3.9,0.3c0.1-0.4-0.6-0.5-0.1-0.7c1.2,0.2,2.2,0,2.9-0.4c0.7,0.4,1.5-0.1,2,0.5
		c1-0.7,2.6-0.2,4-0.2c-0.2-0.5,0.5-0.3,0.6-0.6c0.6,0.6,2.5,0.3,3.3,0c1.7,0.1,4.1,0.1,5.7-0.6c-0.1-0.6,0.1-0.5-0.1-1
		c-0.6,0.2-0.2,0.5-0.7,0.1c-0.2,0.1,0,0.6-0.3,0.7c-0.7,0.2-1.7,0.1-2.6,0.2c0-0.2,0.2-0.3,0.1-0.5c-1.5,0.7-2.3,0.1-3.7,1
		c0.6-1.3-0.8-0.2-1-1.1c0.3-0.1,0.5-0.1,0.7,0c-0.2-0.9-1.1-0.4-1.2,0.2c0.2,0,0.4,0,0.2,0.1c-0.5,0.1-0.8-0.3-0.7-0.9
		c0.6-0.2,1.4-0.1,2.3-0.4c-0.2-0.8,0.6-0.9,0.7-1.5c0.3,0.9,1.5,0.4,2.1,0.3c0,1-1.8,0.4-2,0.9c0.4-0.1,0.3,0.6,0.8,0.5
		c0-0.3,1.1-0.5,1.2-0.2c-0.2,0.3-1,0.3-0.9,0.9c0.6-0.1,1-0.9,1.5-0.3c0.1-0.4,0.1-0.9,0.5-1.1c0.9,0,2.7,0.3,3.4-0.6
		c-0.2,0.6,0.6,0,0.6,0.4c-0.4,0.5-0.6,1.1-0.9,0.9c-0.1,0.6,0.7,0.1,1.1,0.1c-0.3-1.1,0.4-1.5,0.9-1.3c0.2,0.1-0.1,0.5,0.2,0.5
		c0,0-0.2-0.8,0.1-0.7c0.2,0.6,1.1,0.4,1.6,0c0.1,0.2,0,0.6,0.3,0.6c0-0.1,0-0.2,0.2-0.2c0.1,0,0.1,0,0.1,0c0.1,0,0.1,0,0,0
		c0.5-0.1-0.5-0.2,0-0.3c0.6,0.5,1.8-0.3,2.7-0.5c0-0.3-0.1-0.6,0.1-0.7c0.6-0.1,1-0.1,1.2-0.1c-0.1,0.4-1,0.2-0.8,0.8
		c0,0,0.1,0,0.1,0c0.7-0.6,1.8-1.1,2.6-0.8c-0.1,0.2-0.4,0.2-0.3,0.6c0.2-0.1,0.5-0.1,0.7-0.1c0,0,0,0,0-0.1c0-0.5-0.3-0.3-0.1-0.7
		c2.9,0.4,6.2-0.8,9.9-1.7c0-0.2-0.1-0.5,0.2-0.5c0.1-0.2,0.4-0.2,0.4-0.4c0.4,0.1,0.1,0.4-0.2,0.6c0.2,0.3,0.7,0.3,1.3,0.1
		c0-0.4,0.2-0.7,0.5-0.8c0.3-0.2,0.7-0.4,0.6-0.9c0.2,0,0.4,0.1,0.5,0.3c0,0,0,0,0.1,0c0.2,0.2,0.5,0.3,0.6,0.7
		c-0.2,0-0.2,0.2-0.3,0.3c-0.4,0.2-0.3-0.2-0.5-0.3c-0.1,0.1-0.2,0.2-0.3,0.2c0.4,0.6,0.5,1.2,0.5,1.6c0.2-0.3,0.7-0.4,1.1-0.6
		c0-0.3-0.3-0.3-0.4-0.4c1.8-0.7,3.7-1.7,5.3-2.2c0,0.2,0,0.3,0.1,0.5c1.1,0,1.5-0.6,1.8-1.2c0.4,0.8,1.4-0.2,1.9,0.3
		c0.2-0.4,0.2-0.9,0.7-1c0,0.2-0.2,0.3,0,0.3c0.7-0.7,0.8,0,2-0.4c-0.2-0.6,0.6-0.8,0-1.2c-1,0.1,0.2,0.9-0.7,1
		c-0.3-0.4-0.7-0.5-1.2-0.1c0.1-0.6-0.3-0.5-0.6-0.6c-0.2,0.3,0.3,0.6-0.4,0.8c-0.2-0.2-0.1-0.5-0.2-0.9c-0.1,0.1-0.3,0.2-0.4,0.3
		c-0.6,0.6-1.3,0.6-2.1,1.1c0-0.3-0.1-0.5-0.3-0.6c-0.1,0-0.1,0.1-0.2,0.2c0,0.2,0.3,0.3-0.2,0.4c0-0.1-0.1-0.1-0.1-0.2
		c-0.2,0.1-0.4,0.2-0.5,0c-0.2,0.2-0.4,0.4-0.4,0.5c0.1-0.1,0.4,0.4-0.1,0.4c-0.1-0.2-0.3-0.2-0.6-0.6c0,0,0,0,0.1-0.1
		c0-0.1-0.1-0.1,0-0.2c-0.4,0.2,0.4,0.7-0.4,0.8c0-0.3-0.1-0.5-0.3-0.4c0,0,0,0,0,0.1c0.2,0.4-0.9,0.7-0.8,0.5c-0.1-0.3,0-0.5,0-0.7
		c-0.2,0-0.4,0.1-0.8,0c0,0,0.1-0.1,0.2-0.1c-0.3,0-0.3-0.1-0.5-0.5c-0.2,0.9-1.2,0.8-2.2,0.7c0.2,0.4-0.6,0.8-0.8,0.5
		c0.7-0.3,0.6-0.3,0.3-0.7c0.6-0.8,2.4-0.5,2.5-1.1c0.5-0.3,0.2,0.5,0.7,0.2c0.5-0.5,1.7-0.9,2.3-0.8c0.2-0.5,1.5-0.3,1.6-1.1
		c0.5,0,0.6-0.4,1.2-0.4c-0.1,0.3-0.5,0.6,0.1,0.7c0.2-0.4,0.3-0.9,0.9-1c0.4,0.2-0.2,0.5,0.4,0.6c0.4-0.4,0.3-0.5,0.4-0.9
		c0.4,0.5,0.6-0.1,0.9,0.3c0-0.5,0.2-0.9,0.7-1c0.4,0.6-0.2,0.3,0,1c1.2-0.2,2.2-1.8,3.1-1.3c0.1-0.4-0.2-0.8,0.6-1
		c0.5,0,0.5,0.6,0.8,0.7c0.5-0.5,1.1-0.1,1.7-0.5C724.1,244.3,724,243.5,723.5,243.6 M552.9,209.9c-1.5,3.2-1.2,6.7-3.9,7.8
		l-0.1,1.4c-0.4,2.5-2.5,3.7-4,5.4l0.5,0.6c-0.5,1.4-2.4,3.6-3.6,4.1c-2.6,2-5.3,5.4-9.1,7.8c-4,0.1-2.8,1.8-7.7,1.4
		c-3.2-1.3-3.4-6.6-1.5-8c2.6-6.1,3.7-9.2,5.6-11c3.5-5.3,11.4-9.5,13.6-12.4c3-3,7.8-4.6,11.1-5.9L552.9,209.9z M599.2,191.6
		c-1-8.6-0.2-15.2-0.6-23.2c0.2,0,0.2-0.3,0.5-0.3c-0.5-5.4,0.7-10,1-15.2c1.5-1.4-0.4-6,1.6-6.4c-0.2-1.1,1.1-2.8,0.3-2.9
		c0.5-2.3,1.2-4.5,2.5-6.2c0-0.3-0.1-0.5-0.1-0.8c1-1.4,3.5-3.1,5.3-3.9c0.5,0.1-0.6,2.2,0.3,1.9c0.9,0.9,1.1,2.5,2.2,3.2l0.3,1.6
		c0.9,0.9,0.1,3.7,1.1,4.1c-0.1-0.3-0.2,2.3-0.1,2.2c-0.3,4.7,0.6,3.5-0.1,7.8c0.1,0.5,0.6,0.4,0.1,2.8c-0.1,0-0.3,1.3-0.5,1.3
		c-0.1-0.3,0.2,1-0.3,1c-0.3,0.5,0.1,1.3-0.2,2.1c0.1,0.1,0.3,0.1,0.5,0.1c0,0.2-0.1,0.4-0.1,0.5c-0.2,0.2-0.4,0.3-0.6,0.6
		c0.1,0.3,0.3-0.1,0.4,0.1c-0.4,0.6-0.5,1-0.3,1.8c0,0.2-0.1,0.4-0.1,0.5c-0.3,0.3-0.7,0.2-1.1,0.7c-0.1,0.4,0.3,1.3-0.7,1.5
		c0.5,0.5,0,1.3,0.4,1.6c-0.4,0-0.7,0.2-0.6,0.6c0.4,0.4-0.8,2.1-1.6,2.7c0.6,0.4,0.1,1.8,1,1.8c-0.4,0.3-0.7,0.7-1,0.2
		c-0.7,1.4-1.4,2.9-2,4.4c0.5-0.3,0.4,0.3,0.4,0.6c-0.5,0.2-0.8,0.5-1.1,0.9c0.2,0.8-0.4,1.5-0.6,2.1c-0.1,0.3-0.8,2-1.1,2.1
		c-0.4,1.4-1.3,2.5-1.9,3.8c-0.6,0-0.6,0.8-0.7,1.3C599.9,189.1,600.5,191,599.2,191.6 M672.8,259c0-0.2,0.3-0.2,0.5-0.3
		c0,0.1-0.1,0.2,0,0.3C673.1,259.1,672.9,259.1,672.8,259 M673.3,259c0.1-0.1,0.2-0.2,0.2-0.3C673.5,258.9,673.4,259,673.3,259
		 M673.9,258.1c0.2-0.5,0.7-1,1.5-1.2c-0.1,0-0.2-0.1,0-0.2c0.2,0.1,0.7,0,0.7,0.4C675.6,257.1,675.1,257.9,673.9,258.1
		 M683.2,256.2c0.6-0.3,0.4,0.4,0.9,0.4C684,257,683.2,256.7,683.2,256.2 M686.7,256.8c0-0.4,0.4-0.5,0.7-0.3
		C687.3,256.8,686.9,256.7,686.7,256.8 M687.5,256.7c-0.1-0.3,0.2-0.4,0.5-0.4C687.9,256.5,687.8,256.6,687.5,256.7 M688.9,254.9
		c-0.2-0.5,0.5-0.4,0.8-0.5C689.7,254.8,689.3,254.8,688.9,254.9 M691,255.4c0-0.4,0.4-0.5,0.7-0.3
		C691.6,255.3,691.2,255.3,691,255.4 M691.9,254.2c0.3-0.3,0.9-0.7,1.3-0.4C692.8,254.2,692.3,254.2,691.9,254.2 M693.4,254.6
		c-0.1-0.4,1.4-0.9,1.3-0.2C694.3,254.2,693.9,254.3,693.4,254.6 M695.7,253c0.5-0.1,1.1-0.3,1.1,0.3
		C696.2,253.4,695.7,253.5,695.7,253 M697.7,255c-0.8-0.5-1,0.3-1.9,0.2c0.4-0.9,1.4-0.5,2.2-1.3c0,0.3,0.2,0.3,0.2,0.6
		C698.1,254.7,697.5,254.5,697.7,255 M699.7,252.1c-0.6,0.2-0.6-0.2-0.8-0.6c0.2,0.1,0.5,0.1,0.9,0
		C699.7,251.7,699.6,251.9,699.7,252.1 M699.8,253.9c0-0.1,0.2-0.2,0.1-0.4c0.1,0,0.2,0,0.3-0.1
		C700.4,253.9,700.1,253.9,699.8,253.9 M701.3,251.6c-0.1,0-0.2,0-0.3,0.1c0-0.7-0.3,0.1-0.5-0.2c0-0.4,0.7-0.2,1-0.3
		C701.5,251.3,701.3,251.4,701.3,251.6 M703.4,253.5c-0.2,0-0.3-0.3-0.5-0.2c0-0.2,0.4-0.2,0.6-0.3
		C703.4,253.1,703.3,253.3,703.4,253.5 M703.6,252.6c-0.4,0-0.1-0.6-0.1-0.7c0.2,0,0.1,0.3,0.4,0.3
		C703.9,252.4,703.6,252.4,703.6,252.6 M703.9,251.9c0-0.6,1.1-0.9,1.3-0.4C705.1,251.8,704.2,252.1,703.9,251.9 M708.1,250.9
		c0,0.1,0,0.2,0,0.3c-0.1,0-0.2,0-0.3,0.1c0-0.1,0-0.2,0-0.3C707.8,251,707.9,251,708.1,250.9 M706.2,250.9c0,0.2,0,0.5,0.1,0.7
		C705.7,251.7,705.5,250.9,706.2,250.9"/>
	<path class="st2" d="M746.1,245.9c-1.9,0-3.7-0.4-5.4-1.1c-1.6-0.7-3.1-1.7-4.3-3c-1.2-1.3-2.2-2.7-2.9-4.4c-0.7-1.6-1-3.4-1-5.3
		c0-1.9,0.4-3.7,1.1-5.4c0.7-1.6,1.7-3.1,3-4.3c1.2-1.2,2.7-2.2,4.4-2.9c1.6-0.7,3.4-1,5.3-1c2,0,3.8,0.4,5.5,1.1
		c1.7,0.7,3.1,1.7,4.3,3c1.2,1.2,2.2,2.7,2.9,4.4c0.7,1.6,1,3.4,1,5.3c0,1.9-0.4,3.7-1.1,5.3c-0.7,1.6-1.7,3.1-3,4.3
		c-1.2,1.2-2.7,2.2-4.4,2.9c-1.6,0.7-3.4,1-5.3,1H746.1z M746.3,220.2c-1.7,0-3.2,0.3-4.6,0.9c-1.5,0.6-2.7,1.5-3.8,2.5
		c-1.1,1.1-1.9,2.4-2.6,3.8c-0.6,1.4-0.9,3-0.9,4.6c0,1.7,0.3,3.3,0.9,4.7c0.6,1.4,1.4,2.7,2.5,3.8c1.1,1.1,2.3,2,3.8,2.6
		c1.4,0.6,3,1,4.7,1c1.8,0,3.3-0.3,4.8-0.9c1.5-0.6,2.8-1.5,3.8-2.6c1.1-1.1,1.9-2.4,2.6-3.8c0.6-1.4,0.9-3,0.9-4.6
		c0-1.7-0.3-3.3-0.9-4.7c-0.6-1.4-1.4-2.7-2.5-3.8c-1.1-1.1-2.3-2-3.8-2.6c-1.4-0.6-3-1-4.7-1l-0.1-0.2L746.3,220.2L746.3,220.2z
		 M750.5,239l-4.1-5.3l-3.3,0l0,5.2l-2.4,0l0.1-14.2l6.4,0.1c0.9,0,1.7,0.1,2.4,0.4c0.7,0.3,1.3,0.6,1.8,1.1
		c0.4,0.4,0.6,0.7,0.8,1.2c0.2,0.5,0.3,1,0.3,1.6c0,1.2-0.4,2.2-1.1,2.9c-0.7,0.6-1.5,1.1-2.4,1.3l4.3,5.7L750.5,239z M747,231.6
		c1,0,1.7-0.2,2.3-0.6c0.6-0.4,0.9-1,0.9-1.7c0-0.7-0.2-1.3-0.8-1.7c-0.5-0.4-1.3-0.6-2.2-0.7l-3.9,0l0,4.6L747,231.6z"/>
	<path class="st2" d="M746.3,218.7h0.1c1.9,0,3.7,0.4,5.3,1.1c1.6,0.7,3.1,1.7,4.2,2.9c1.2,1.2,2.2,2.7,2.8,4.3c0.7,1.6,1,3.4,1,5.2
		v0.1c0,1.9-0.4,3.6-1.1,5.2c-0.7,1.6-1.7,3.1-2.9,4.3c-1.2,1.2-2.7,2.2-4.3,2.9c-1.6,0.7-3.4,1-5.2,1h-0.1c-1.9,0-3.7-0.4-5.3-1.1
		c-1.6-0.7-3.1-1.7-4.3-2.9c-1.2-1.2-2.1-2.7-2.8-4.3c-0.7-1.6-1-3.4-1-5.2v-0.1c0-1.9,0.4-3.6,1.1-5.2c0.7-1.6,1.7-3,2.9-4.3
		c1.2-1.2,2.7-2.2,4.3-2.9C742.7,219,744.4,218.7,746.3,218.7 M746.2,244.4c1.7,0,3.2-0.3,4.7-0.9c1.5-0.6,2.8-1.5,3.9-2.6
		c1.1-1.1,2-2.4,2.6-3.8c0.6-1.5,1-3,1-4.7v-0.1c0-1.7-0.3-3.2-0.9-4.7c-0.6-1.5-1.4-2.8-2.5-3.9c-1.1-1.1-2.3-2-3.8-2.6
		c-1.5-0.7-3-1-4.8-1c0,0-0.1,0-0.1,0c-1.7,0-3.3,0.3-4.7,0.9c-1.5,0.6-2.8,1.5-3.9,2.6c-1.1,1.1-2,2.4-2.6,3.8
		c-0.6,1.5-0.9,3.1-1,4.7v0.1c0,1.7,0.3,3.2,0.9,4.7c0.6,1.5,1.4,2.8,2.5,3.9c1.1,1.1,2.3,2,3.8,2.6c1.5,0.7,3.1,1,4.8,1H746.2
		 M741,224.8l6.2,0.1c0.9,0,1.7,0.2,2.4,0.4c0.7,0.3,1.3,0.6,1.7,1.1c0.3,0.3,0.6,0.7,0.8,1.2c0.2,0.5,0.3,1,0.3,1.6v0.1
		c0,1.1-0.3,2-1,2.7c-0.7,0.7-1.5,1.1-2.6,1.4l4.3,5.6l-2.6,0l-4-5.3h-0.1l-3.5,0l0,5.2l-2,0L741,224.8 M747.1,231.7
		c0.9,0,1.7-0.2,2.3-0.6c0.6-0.4,0.9-1,0.9-1.8v-0.1c0-0.7-0.3-1.3-0.8-1.8c-0.6-0.4-1.3-0.7-2.3-0.7l-4.1,0l-0.1,4.9L747.1,231.7
		L747.1,231.7 M746.3,218.4c-1.9,0-3.7,0.4-5.3,1.1c-1.7,0.7-3.2,1.7-4.4,3c-1.3,1.2-2.3,2.7-3,4.4c-0.7,1.7-1.1,3.5-1.1,5.3
		c0,2,0.3,3.8,1,5.4c0.7,1.7,1.7,3.1,2.9,4.4c1.2,1.3,2.7,2.3,4.4,3c1.7,0.7,3.5,1.1,5.4,1.1h0.1c1.9,0,3.7-0.4,5.3-1.1
		c1.7-0.7,3.2-1.7,4.5-3c1.3-1.2,2.3-2.7,3-4.4c0.7-1.7,1.1-3.4,1.1-5.3c0-1.9-0.3-3.7-1-5.4c-0.7-1.7-1.7-3.1-2.9-4.4
		c-1.2-1.3-2.7-2.3-4.4-3c-1.7-0.7-3.5-1.1-5.4-1.1H746.3z M746.2,244.1h-0.1c-1.7,0-3.2-0.4-4.6-1c-1.4-0.6-2.7-1.5-3.7-2.6
		c-1.1-1.1-1.9-2.3-2.4-3.8c-0.6-1.4-0.9-3-0.9-4.6c0-1.7,0.3-3.2,0.9-4.7c0.6-1.4,1.4-2.7,2.5-3.8c1.1-1.1,2.3-1.9,3.8-2.5
		c1.4-0.6,2.9-0.9,4.6-0.9h0.1c1.7,0,3.2,0.3,4.7,1c1.4,0.6,2.7,1.5,3.7,2.6c1,1.1,1.9,2.4,2.4,3.8c0.6,1.4,0.9,3,0.9,4.6
		c0,1.7-0.3,3.2-0.9,4.6c-0.6,1.4-1.5,2.7-2.5,3.7c-1.1,1.1-2.3,1.9-3.8,2.5C749.4,243.8,747.9,244.1,746.2,244.1 M740.7,224.5
		l0,0.3l-0.1,13.9l0,0.3h0.3l2.1,0h0.3l0-0.3l0-4.9l3.1,0l3.9,5.2l0.1,0.1h0.2l2.6,0h0.6l-0.4-0.5l-4-5.3c0.9-0.3,1.7-0.7,2.3-1.3
		c0.7-0.7,1.1-1.7,1.1-2.9c0-0.7-0.1-1.2-0.3-1.7c-0.2-0.5-0.5-0.9-0.9-1.3c-0.5-0.5-1.1-0.9-1.8-1.2c-0.8-0.3-1.6-0.4-2.5-0.4
		l-6.2-0.1H740.7z M743.3,231.4l0-4.3l3.8,0c0.9,0,1.6,0.2,2.1,0.6c0.5,0.4,0.7,0.9,0.7,1.5c0,0.8-0.3,1.3-0.8,1.6
		c-0.5,0.4-1.3,0.6-2.1,0.6v0.3l-0.1-0.3L743.3,231.4z"/>
</g>
</svg>
