<?xml version="1.0" encoding="utf-8"?>
<!-- Generator: Adobe Illustrator 22.1.0, SVG Export Plug-In . SVG Version: 6.00 Build 0)  -->
<svg version="1.1" id="Layer_1" xmlns="http://www.w3.org/2000/svg" xmlns:xlink="http://www.w3.org/1999/xlink" x="0px" y="0px"
	 viewBox="0 0 792 612" style="enable-background:new 0 0 792 612;" xml:space="preserve">
<style type="text/css">
	.st0{fill:#6CB33F;}
	.st1{fill:#00833E;}
	.st2{fill:#63A70A;}
</style>
<path class="st0" d="M255.9,223.6c0.4,2.2-2,1.2-2.6,2.2C252.9,225.2,254.8,223.9,255.9,223.6z"/>
<path class="st0" d="M248,229.1c0.6-0.6,0.9-1,1.3-1.3c0,0.3,0.6-0.6,0.4-0.9c0.3-0.1,0.3-0.4,0.6-0.6c0.1,0.1-0.4,0.3,0,0.4
	c0.6-0.4,0.7-1.4,1.4-2c0.1-0.1,0.6-0.1,0.9-0.3c0.1-0.1,0.3-0.4,0.4-0.6c0.7-0.7,1.7-1.3,2.2-1c-0.1,0.6-0.9,0.7-1,1.2
	c0.3,0.1,0.4-0.4,0.6,0.1c0.7-0.4,1.2-0.6,1.4-0.9c0.3,0,0.6,0,0.9,0.3c0.6-0.4,0.9-0.4,1.6-0.9c0.1,0.7,0.9-0.1,1.3,0.4
	c0.3,0,0.4,0,0.7-0.1c0.4,0.6,1,0,1.3,0.9c-0.3,0.3-0.6,0-0.9,0.4c0-0.1-0.1-0.1-0.1-0.3c-0.6,0.3-1,0.9-1.6,0.7
	c0.1,0.9-0.9,1-1.3,1.4c-0.1,0.1-0.1,0.4-0.4,0.6c-0.4,0.6-1.2,0.9-1.4,1.4c-0.4,0.4-0.7,1.3-1,1.9"/>
<g>
	<path class="st1" d="M368.2,340.9c-0.9-0.9-2.4-1-3.4-0.1c-6.1,5.7-11.6,9.2-20.2,9.2c-12.9,0-22.6-10.6-22.6-24.8
		c0-13.9,9.7-24.4,22.6-24.4c7.1,0,13,2.6,19.6,8.8c0.5,0.5,1.2,0.7,1.8,0.6c0.6-0.1,1.3-0.3,1.7-0.8l8.6-9.9c0.9-1,0.8-2.4-0.1-3.3
		c-6.5-6.2-15.2-12.5-31.4-12.5c-23.7,0-41.6,17.9-41.6,41.9c0,23.3,18,41.5,41,41.5c13.3,0,23-4.2,32.5-14.2c0.9-0.9,0.9-2.5,0-3.4
		L368.2,340.9z"/>
	<path class="st1" d="M422.9,285.6c-23.7,0-42.2,18.3-42.2,41.9c0,23.7,18,41.5,42,41.5c23.7,0,42.2-18.3,42.2-41.9
		C464.9,303.4,446.8,285.6,422.9,285.6 M422.9,351.9c-13.3,0-23.4-10.6-23.4-24.8c0-13.9,9.9-24.4,23.2-24.4
		c13.3,0,23.4,10.6,23.4,24.8C446.1,341.4,436.1,351.9,422.9,351.9"/>
	<path class="st1" d="M507.9,318.9c-15.4-3.7-16.1-6-16.1-9.8c0-4,4-6.6,9.9-6.6c6.3,0,12.5,2.4,19.2,7.3c0.5,0.4,1.2,0.6,1.8,0.5
		c0.6-0.1,1.2-0.5,1.6-1l7.2-10.1c0.7-1,0.5-2.5-0.5-3.3c-8.4-6.8-17.9-10.1-29-10.1c-16.4,0-28.3,10.3-28.3,24.6
		c0,15.4,9.9,20.9,27.1,25c14.2,3.3,15.3,5.9,15.3,9.5c0,5.3-5.7,7.1-11,7.1c-8.2,0-14.9-2.8-22.4-9.3c-0.5-0.4-1.1-0.6-1.8-0.6
		c-0.6,0.1-1.2,0.4-1.7,0.9l-8,9.5c-0.8,1-0.7,2.5,0.2,3.4c9.4,8.3,20.8,12.7,33.3,12.7c17.9,0,29.5-9.8,29.5-25.3
		C534.2,327.5,521.6,322.2,507.9,318.9"/>
	<path class="st1" d="M605.7,301.7v-12.3c0-1.3-1.1-2.4-2.4-2.4h-61.6c-1.3,0-2.4,1.1-2.4,2.4v12.3c0,1.4,1.1,2.4,2.4,2.4h21.7v61.1
		c0,1.3,1.1,2.4,2.4,2.4h13.4c1.3,0,2.4-1.1,2.4-2.4v-61.1h21.7C604.6,304.1,605.7,303,605.7,301.7"/>
	<path class="st1" d="M648.6,287.8c-0.4-0.9-1.2-1.4-2.2-1.4H634c-1,0-1.8,0.6-2.2,1.4l-33.4,76.4c-0.3,0.8-0.3,1.6,0.2,2.3
		c0.4,0.7,1.2,1.1,2,1.1h13.7c1,0,1.9-0.6,2.2-1.5l7.2-16.8h32.7l7.1,16.8c0.4,0.9,1.2,1.5,2.2,1.5h14.1c0.8,0,1.6-0.4,2-1.1
		c0.4-0.7,0.5-1.5,0.2-2.3L648.6,287.8z M649.4,332.7h-18.8l9.4-21.9L649.4,332.7z"/>
	<path class="st1" d="M360.9,435.9c10.7-4.2,16.7-12.9,16.7-24.4c0-7.1-2.4-13.4-7-18.1c-5.5-5.4-13.7-8.3-23.6-8.3h-33.8
		c-1.3,0-2.4,1.1-2.4,2.4v75.9c0,1.3,1.1,2.4,2.4,2.4h13.3c1.3,0,2.4-1.1,2.4-2.4v-24h13l18,25.4c0.4,0.6,1.2,1,2,1h15.7
		c0.9,0,1.7-0.5,2.1-1.3c0.4-0.8,0.4-1.8-0.2-2.5L360.9,435.9z M328.8,402h17c6.1,0,13.3,1.8,13.3,10.4c0,6.3-5.1,10.3-13.2,10.3
		h-17.1V402z"/>
	<path class="st1" d="M406.7,385.1h-13.4c-1.3,0-2.4,1.1-2.4,2.4v75.9c0,1.3,1.1,2.4,2.4,2.4h13.4c1.3,0,2.4-1.1,2.4-2.4v-75.9
		C409.1,386.1,408,385.1,406.7,385.1"/>
	<path class="st1" d="M486.7,440.8c-0.9-0.9-2.4-1-3.4-0.1c-6.1,5.7-11.6,9.2-20.2,9.2c-12.9,0-22.6-10.6-22.6-24.8
		c0-13.9,9.7-24.4,22.6-24.4c7.1,0,13,2.6,19.6,8.8c0.5,0.5,1.2,0.7,1.8,0.7c0.6,0,1.2-0.4,1.7-0.9l8.6-9.9c0.8-1,0.8-2.4-0.2-3.3
		c-6.5-6.2-15.2-12.5-31.4-12.5c-23.7,0-41.5,17.9-41.5,41.9c0,23.2,18,41.5,41,41.5c13.2,0,23-4.2,32.5-14.2c0.9-0.9,0.9-2.4,0-3.3
		L486.7,440.8z"/>
	<path class="st1" d="M582.5,462.4L549.1,386c-0.4-0.9-1.2-1.5-2.2-1.5h-12.4c-1,0-1.8,0.6-2.2,1.5l-33.4,76.4
		c-0.3,0.7-0.2,1.6,0.2,2.3c0.5,0.7,1.2,1.1,2,1.1h13.7c1,0,1.9-0.6,2.2-1.5l7.2-16.8h32.7l7.1,16.8c0.4,0.9,1.3,1.5,2.2,1.5h14.1
		c0.8,0,1.6-0.4,2-1.1C582.8,464,582.8,463.1,582.5,462.4 M549.9,430.8h-18.8l9.4-21.9L549.9,430.8z"/>
	<path class="st2" d="M417,247.5c0-0.2-1.4-1.7-1.4-1.7c-0.7-0.3-1-0.9-1-0.9c-0.1,0.1-0.9-0.4-1.4-0.6c-0.7-0.3,1-0.1,0.6-0.3
		c-2-1.1-3.8-5.4-4.9-11.6c0.1,0.2-0.6-8.5-0.6-9.3c-0.4-4,0.2-7.8,0.5-10.8c0.5-2,0.5-5.6,0.7-6.9c0.3-2.4,0.6-2,1.2-6.9
		c0.2-0.4,0.3-1.3,0.5-1.7c0.1-1.4-0.3-1.6-0.5-2.4c0.2-0.5-1.4-1.6-2-2.5c-0.5-0.6-6.8-0.8-6.8-0.8c-0.4,0.3-1-0.1-1.2,0
		c-1,0.2-1.5,0.4-1.5,0.4c-1,0.5-1.6,0.7-2.5,1.2c-0.5,0.5-2.9,2.9-3.3,3.3c-3.6,4.3,1-0.2-0.5,1.6c-1.2,1.3-3.3,3.6-5.5,6.2
		c-1,1.1-0.8,1.5-1.7,2.6c-0.7,0.8-1.5,2.4-2.2,3.1c-2.2,2.6-5.1,4.6-5.5,4.7c-1.5,2.6-1.7,1.8-3.3,5c-0.8,0.9-1.4,1.4-2.1,2.2
		c-0.2,0.8-2.5,2.5-4.3,5.4c-0.1,0.3-0.4,0.9-0.6,1.1c-0.2,0-0.5,0.5-0.7,0.5c0-0.7,0,0,0.1-0.7c-0.1-2.1,0.8-3.8,0.6-3.9
		c0-0.4-0.2-1.6-0.2-2c1.5-3.3,0.3-3.3,1.3-6.7c-0.5,1,0.4-2.1,0.4-2.1c0.6-1.6,1.1-3.4,1.2-4.9c0,0,1.2-2.9,1.2-6.6
		c-0.1-1.8-1-1-1-1c0,0,0,0,0-0.1c0,0,0,0,0,0s-0.8-1.7-4.7-0.9c-1.2,0.1-2.7-0.4-4.8,0.5c-0.9,0.3-1.1,0.3-2.3,0.9
		c-0.5,0.4-1.8,1.9-2.2,2.2c-0.3,0.3-0.5,0.5-0.8,0.8c-0.3,0.3-0.6,0.6-0.8,0.9c-0.3,0.4-1,2-1.3,2.4c-0.7,0.8-1.4,1.7-2,2.5
		c-1.5,1.8-1.6,1.6-3,3.3c-0.5,0.5-1.1,1.7-1.1,1.7c-0.3,0.6-0.6,1.2-0.9,1.7c-1.3,1.4-1.9,2-3,3c-0.4,1.6-6.4,5.1-6.6,6.5
		c0.3-1.2-5.6,5.7-7.5,6.3c0,0-10.1,7.6-15.6,8.6c-6.2,2.4-10.5,0.3-11.9-0.5c-1-1.1-1.7-1.1-2.2-1.8c0.1,0.1-0.8-0.9-0.6-0.8
		c-4.4-3.8-2.3-8.1-1.1-10.9c0.1-0.5,0.1-0.8,0.2-1c1-0.2,2.2-0.7,4.4-1.3c0.7-0.2,1.9,0.1,2.8-0.1c0.4-0.1,1-0.2,2.1-0.5
		c1.5-0.4,4-1.7,4.4-1.8c0.8-0.2,1.2-0.1,1.9-0.3c1.5-0.5,3.1-1.3,3.1-1.3c1.5-0.5,3.1-1.2,4.6-1.9c0.8-0.4,0.8-0.7,1.6-1.1
		c0.9-0.5,2.7-1.1,3.5-1.6c0.4-0.2,1.3-1,1.7-1.2c0.6-0.4,0.7-0.1,1.3-0.5c0.5-0.3,1.9-0.8,2.4-1.2c1.9-1.4,2.9-2.8,4.6-4.4
		c2.2-2.6,4-4.7,5.8-8.1c0.9-1.6,1.9-3.5,2.4-6.5c0.1-1.6,0.5-3.8-2.6-7c-2.7-2.3-6.6-2.7-8-2.3c-11.6,1.9-14.5,5-19.7,7.5
		c-4.5,2.7-8.8,5.9-14.1,11.9c-5.3,5.5-10.3,12.2-12.8,19.9c-0.1,3.7-2.4,10.4,0.6,15.5c-0.1,0.7,0,1.4,0.1,2.1
		c1.2,1.6,2.9,3.5,4.4,5.2c-0.1,0-0.2,0-0.3,0c2.9,2.1,6.9,3.7,8.7,3.9c-0.1,0.1-0.1,0.1-0.2,0.1c1.5,0.5,2.8,0.5,4.2,0.6
		c-0.2,0-0.5,0.1-0.8,0.2c6.1,0.1,11.1-1.1,15.1-2.4c0.5-0.3,0.9-0.5,1.4-0.7c9-2.4,8-5.3,14.6-8.5c0,0.1,0.9-0.7,0.9-0.7
		c3.8-4.9,7.4-6,11.1-9.6c0.1,0,0.2,0.1,0.3,0.1c0,0,1.5-1,2.6-2.5c0.5-0.8,1-1.6,1.6-2.5c0.5-0.6,1.3-1.6,2.2-2.7
		c0.1-0.2,0.6-1.4,0.7-1.5c1.1-2.2,1.9-2.8,2.1-3c0.3,1.2,0.2,3-0.4,5.1c-0.3,2.2,0.3,3.8-0.2,5.7c0.2,0.8-0.5,4.3-0.3,5
		c0.3,0.8-0.3,1.4,0,2.1c0.2,0.4,0.8,1.4,1,1.8c0.4,0.6,0.5,0.7,1,1.1c0.4,0.2,0.5,0.6,0.8,0.9c0.5,0.1,1,0.8,1.4,1
		c0.6,0,1.2,0.6,1.8,0.7c0,0.1,1.4,0.3,1.6,0.2c0.5,0,1-0.1,1.5-0.1c0,0.1,0.3,0,0.9-0.3c0.2,0,0.3,0,0.5,0c0,0.2,0.4-0.2,1.6-0.6
		c0.2-0.2,0.8-0.6,1.1-0.7c0.1-0.1,1-0.8,1.1-0.9c0.1-0.4,0.5-0.3,0.7-0.8c0.2-0.4,0.6-0.5,1-1.1c0.2-0.3,0.8-0.7,1.1-1
		c0.4-0.3,1.8-2.5,2.2-2.7c0.8-1.4,4.3-3.9,4.7-5.1c0.9-1.1,8-10.3,8.9-11.4c1.9-1.9,2.8-2.9,3.7-4.4c2.3-2.4,2.1-1.9,3.7-4
		c0.2-0.3,1.1-2.8,1.4-3.2c0.3-0.4,0,1.2,0.4,0.7c-1.6,5.4-1.3,6.2-1.4,12.4c0,0.1,0.7,3.9,0.1,5.2c0,0.1,0.2,3.6,0.2,3.8
		c0,2.5,0,1.6,1.6,7.9c1.2,5.1,2.8,9.7,8.5,14.8c1.2,1.1,2.7,2.3,5.7,2.6c1.7,0.1,2.5-0.5,2.7-0.5c0.1-0.1-0.6-0.1-0.4-0.2
		c0.5-0.4,0.6,0,1.1-0.5c0.1-0.1,0.1-0.6,0.2-0.7c0.1-0.2,0.8-0.4,0.9-0.5c0-0.1-0.2-0.7-0.2-0.7c0.2-0.2,0.1,0.3,0.4,0.2
		C418.1,248.3,417,247.6,417,247.5 M305.3,211.5c2.8-2.8,8.2-7.6,8.2-7.6c2.5-2.7,2.3-2.6,7.3-4.8c0.5-0.4,1-0.7,1.6-1
		c0.5-0.2,1-0.4,1.5-0.6c-0.2-0.2,0.7-0.2,1.3-0.7c1.1,0.1,0.8-0.6,3-1.7c1.9-0.4,4.1-2.3,6.1-2c0.6,0.2,1.7,1.5,0.2,4.6
		c-1.2,1.9-2.4,4-4.6,5.9c-1.2,1.1-2.4,2.3-3.6,3.4c-1.1,1.2-3.6,1.8-5.9,3.1c-1.9,1.1-4.4,1.8-6.3,2.7c-2.4,1.1-3.8,1.5-5,1.9
		c-0.8,0.7-3.3,1.3-4.4,1.6C304.8,214.2,302.3,214.8,305.3,211.5"/>
	<path class="st2" d="M460.2,239.4c3.1-1.2,15.4-11.4,17.3-13.4c0.9-0.7,0.7-0.4,1.5-1.2c0.3-0.2,0.9-1.5,0.9-1.5l2.3-2.5
		c0.2-0.3-0.4-0.1,0.8-1.2l0.1-1c0.4-0.3,0.8-0.7,1.2-1.1c-0.2,0.7-0.5,1.7-0.5,2.3c-0.1,0.7-0.2,1.3-0.2,2c0.2,1-0.3,2.6-0.3,2.6
		c0,0,0.1,5.6,0.9,7.3c0,0.7,0.9,2.4,0.9,2.4c0.3,0.8,0.7,3.6,0.6,3.5c0.1,0.2,1.5,3.5,2.1,4.2c0.8,1.2,1.4,2.3,2.2,3.6
		c0.8,0.7,1.1,1.1,1.9,1.9c0.5,0.2,1.2,0.6,1.7,0.8c0.7,0.2,2.2-0.5,2.9-0.3c0.5-0.3,0.9-0.7,1.4-1c0.3-0.5,0.6-0.9,0.8-1.4
		c0,0-1.4-4.7-2-5.3c-0.5-0.9-1.1-1.7-1.6-2.5c-0.3-0.7-0.5-1.4-0.7-2.1c-0.3-0.9-0.5-1.8-0.8-2.6c-0.3-1.2-0.5-2.4-0.7-3.6
		c0.1-0.1-0.6-2.3-0.1-4.8c0-0.7,0-1.4,0-2.1c0-3.6,0.8-9.9,1.6-13.9c0.4-0.7,0.6-1.6,0.8-2.3c-0.2,0.4-0.3,0.3-0.2,0
		c0.6-2.1-0.1-0.1,0.4-2.1c0.3-1.2,0.1-0.9,1.2-3.8c0.3-0.9,1.1-2.5,1.1-2.5c0.3-0.3,0.3-0.2,0.5-1.7c-0.3-1.5-5.8-2.2-8.1-0.5
		c-0.3,0.2-0.6,0.4-0.9,0.7c-0.6,0.5-1.2,1-1.8,1.5c-0.5,1-0.6,1.1-0.8,1.5c-0.2,0.5-0.6,1-0.8,1.6c-1.3,2,0.1,1.5-0.6,2.7
		c-0.9,1.4-1.7,2.8-2.5,4.2c-0.1,0.2-0.3,0.5-0.4,0.8l-2.7,3.3c-0.5,0.4-4.7,4.6-5.5,4.8c0.3-0.1-2.5,2.2-2.9,2.7
		c-0.9,0.8-2.8,2.4-3.6,3l-6.5,4.9c-2.4,1.7-2.6,2.2-5.5,3.7l-2.6,1.7c-3.1,2.3-6.9,3.2-10,3.4c-1.8-0.2-3.4-0.8-4.4-2.3
		c-0.4-0.5-1.5-2.3-1.6-2.6c-0.7-1.7-0.5,0.1-0.8-1.8c-2.1-2,3.7-15,6.4-17.2c0.8-1.6,2.4-3.2,3.4-4.7l-0.1,0.2
		c1-1.7,8.9-8.9,10.5-9.9l-0.3,0.1c1.3-1.3,1.4-0.8,2.6-1.4c-0.3-0.2,0.9-1.3,1.4-1.6l0,0.1c0.8-0.5,2.4-1.8,3.7-2.4l0,0.3
		c1-0.7,2.1-1.6,2.7-1.6c0.2,0,0.7-0.2,1.2-0.2c0,0.1-0.1,0.2-0.1,0.7c1.1-0.1,0.1,0.8-0.1,1c-0.8,1.1-0.6,2.8-0.6,2.8s0.6,1,1,1.6
		c0.5,0.7,1.9,1.3,2.6,1c0.5,0.2,1.1,0.2,1.3,0c0,0,1.4,0.1,1.7-0.1c0.9-0.5,2.3-3.3,2.3-3.3c0.6-1.1,0.2-1.6,0.3-1.4
		c0,0,0.6-0.2,0.9-1.4c0.3-1.8-0.4-0.3-0.2-2.9c0.6-1.8-2.6-5.3-3.8-6c-2-1.2-3.6-1.2-4.7-1.1c-0.5-0.1-1,0-1.4,0
		c-2.4,0.2-4.1,0.7-5.8,1.2c-3.3,1.2-6.1,2.7-8.9,4.5c-0.2,0-3,2.1-4.5,3.3c-0.4,0.3-0.6,0.3-0.8,0.3c0.2-0.1-7.2,6.9-7.2,7.1
		l0.2,0.4c-1.3,1.4-0.7,0.1-1.8,1.5c-0.1,0.9-2.1,2.5-2.8,3.4c-0.4,0.6-0.5,0.7-0.8,1.2c-0.1,0.2,0.2-0.1,0.3-0.1l-0.7,1.1
		c-0.4,0.3-0.6,0.3-0.3-0.1c-2.4,2-10.3,17-9.2,22.9c-0.2,1,0.4,2.4,0.1,3.5l0.3,0.3l-0.1,0.7c2,5.3,0.4,1.3,2.5,5.8
		c1.8,2.1,3,2.9,4.1,3.7c-0.2-0.1-0.5-0.6,0.1-0.3c-0.1,0.3,1.5,0.8,1.6,1.2c0.5,0.3,2.3,1.3,1.8,0.6c0.3,0.3,2,1,0.9,0.8
		c0.6,0.2,1.2,0.5,1.7,0.6c0,0,2.2,0.6,3.5,0.5c0.5,0,0.9,0.1,1.1,0.3c0.9,0,1.7,0,2.4-0.1c0,0,3.1-0.4,3.1-0.4
		C453.6,243.6,460.2,239.4,460.2,239.4"/>
	<path class="st2" d="M507.6,187.4c-0.1-1.6,1-2,0.8-3.1c-0.1-1.5-2.3-1.4-2.2-3.4c-0.9-0.2-1.1-1.2-1.8-1.7c-0.5-0.3-1.4,0-1.4-0.8
		c-1.3-0.1-1.6-0.4-2.7-0.5c-2.4-0.2-6.2,0.3-7.5,2.4c0.1,0.7-0.3,0.9,0.1,1.2c-0.5,0.2-0.6,0.8-0.8,1.4c0.2,0.7,0.7,0.8,0.3,1.9
		c1.2,0.6,0.5,3,2.6,3.2c0,0.4-0.3,0.4,0,0.7c0.6,0.2,0.9,0,1.6,0c1.8,2.4,6-0.6,8.9,0.5C506.4,188.6,506.7,187.7,507.6,187.4"/>
	<path class="st2" d="M280.5,189.2c1,1,5.1-2.2,6.1-2.5c2-3.2,2.2-2.1,4.2-8.8c0.4-0.9-0.6-2.1-0.4-3.3c-0.9-0.5-0.8-2.1-2.6-1.8
		c-0.4-1.5-2.6,0.2-3.9-0.5c-0.8,0.7-2.2,0.6-2.4,0.9c-1.3,0.8-2.9,1.8-4.1,3c-0.2,0.2-0.2,0.6-0.5,0.8c-0.1,0.1-0.5-0.1-0.6,0
		c-0.1,0.1-0.2,0.4-0.2,0.5c-0.8,1-2.2,2.2-3,3.1c-0.4,0.5-0.7,0.7-1.1,1.2c-0.6,0.7-0.7,1.1-1.2,1.9c-0.5,0.7-1.2,1.5-1.7,2.2
		c-0.8,1.1-1.5,2.3-2.1,3.1c-0.4,0.6-0.2,0.9-0.5,1.5c-0.3,0.6-1,1.1-1.4,1.7c-0.1,0.2,0,0.6-0.1,0.8c-0.1,0.3-0.6,0.5-0.6,0.7
		c-1.2,2.6-1.8,5.3-3.1,7.6c0.5,0.1-0.2,1-0.4,1.8c-0.2,0.9,0,1.4-0.6,1.7c0.7,0.5-0.7,1.9-0.1,2.8c0,0.1-0.1,0.1-0.1,0.2
		c-1.5,1.7-3.2,3.7-4,5.2c-6,4.6-12.1,9.5-18.7,13.5c-3.6,1.7-6.5,3.5-9.9,5.2c-1.9,0.9-3.9,1.9-6,2.7c-0.5,0.2-0.8,0.3-1.2,0.5
		c-0.6,0.2-1.1,0.3-1.7,0.4c-0.5,0.1-1,0.2-1.5,0.4c-7.2,2-18.2,5.7-26.4,4.8c-1-0.6-2.4-0.8-3.5-1.4c0-0.2-0.2-0.3-0.1-0.7
		c-1.1,0.2-2.1-1.9-2.3-3.1c-0.6-3.6,3.1-9.8,4.7-10.4c3,0.1,4.5-1.8,6.9-1.8c2.5-1.1,5-2,7.7-2.8c0.4-0.2,0.5-0.5,1.1-0.4
		c4.7-1.8,8.7-3.5,12.2-4.6c0-0.3,11.2-5.2,12.7-6.1c5.1-1.8,9.5-4.9,14-6.8c0-0.1,0.5-0.6,0.5-0.2c-1.5,1.6,2-0.2,4.4-3
		c1.3-1.5,3.2-3.5,3.4-4.9c0.1-1-0.8-1.9,0.1-2.9c-0.8-0.4-0.6-1.5-1-2.2c-2.3-2-4.1-4.5-6.9-5.6c-1.1-0.4-2.8-1-4.2-0.9
		c-0.8,0-1.6,0.5-2.5,0.5c-11.2,0.1-18.5,3.8-26.5,8c-0.4,0.5-0.2,0.7-0.4,1c-2.1,0.3-4.4,2.1-6.2,3.3c-4.1,2.3-7.6,5.3-11.3,8.1
		c-4.5,4.5-9.3,8.5-12.8,14.2c-0.8,0.5-1.7,0.9-2.6,1.4c0.5-0.1,0.6,0.1,0.5,0.5c-1.5-0.4-6.1,1.3-8.8,1.6c-1.1,1.7-4.5,0.6-5.4,2
		c-2,0.2-14.3,3.6-15.1,3.7c-1,0.3-22.9,5.5-23.6,5.5c-1.2,0.8-13.4,2.9-13.4,2.7c-3,0.4-9,2.1-9,1.6c-0.6-0.1-14.2,1.3-20.1,3.3
		c-0.6-0.9-1.5,0.3-2.3,0.3c-0.4-0.7-7.3,0.2-6.5,0.8c-0.8-0.6-0.5,0.9-1.4,0.2c0-0.3,0.5-0.1,0.4-0.5c-0.9,0.1-1.6,0.4-2.2,0.8
		c0.1-0.2,0.3-0.3,0.4-0.5c-12.5,1.2-28.5,1.3-37.4-5.3c-0.4-0.1-0.4,0.3-0.9,0.2c-0.4-0.1-0.5-0.5-1-0.5c-1.5,2.5,0.4,3.7,1.1,5.2
		c-0.5,0.1-0.5-0.3-0.9,0c-0.2,1.6,1.9,1.8,1.3,2.9c6.9,4.3,15.8,7.1,25,6.5c-0.1,0.3,0,0.5,0.1,0.7c2.6-0.2,7.4-0.6,7.3-0.4
		c2.1,0.5,5.5,0.1,8.4-0.8c0.3,0.8,4.2-0.9,5.8-0.8c-0.1,0.2-0.5,0.6,0.1,0.5c1.7-0.4,6.8-1,7-0.8c0.5,0.4,6.6-0.2,5.4-0.8
		c1.2-0.3,1.8-0.1,2.6-0.6c-0.5,0,5.9-1.5,5.4-0.6c0.8-0.1,1.5-0.3,2.1-0.5c0.3-0.4,11.1-1.6,11.5-1.2c-0.5-0.9,2.6-1.1,1.4-0.5
		c1-0.3,7.9-1.1,7.8-1.8c1.2-0.2,8.2-1.2,8.4-1.1c0.4-0.2,6.8-2.4,6.8-2.3c3.1-1.1,10.6-2.6,11.3-2.4l4.4-0.6
		c-0.7,0,9.7-3.3,9.6-2.4c0.8-0.1,1.3-0.4,2-0.7c-0.1-0.4,7.1-2.4,6.9-1.8c0.8,0,1.2-0.4,1.9-0.5c-0.1,2.2-0.2,5.4,1.1,6.9
		c0,0.3-0.5,0.2-0.4,0.6c1.5,3.7,3.9,7.5,7,10.2c5.8,3.7,15.3,2.8,22.5,1.9c6.4-1.5,12.2-3.3,17.8-5.6h0c2.6-1,5.2-2.4,7.7-3.1
		c3.4-2.4,7.2-4.3,11-6.2c3.8-3.3,11.5-8.4,14.8-12.2c0.9-0.5,1.8-1.3,2.7-2.1v0.9c0.3,2,0.8,4.1,1.2,5.6c-0.2,0.9,0.2,1.6,0.6,1.6
		c-0.2,0.2-0.3,0.5-0.3,0.8c0.9,3.7,2.6,6.8,3.5,10.5c0.2,0.2,0.4,0.4,0.7,0.6c-0.2,0.5,0.3,0.6,0,1.2c0.5,0.7,1.1,1.7,1.3,2.2
		c0.2,0.5,0,1,0.2,1.5c0.5,1.5,1.4,2.8,2,4.3c0.8,2.1,1,4.4,1.3,6.8c0.1,0.7,0.4,1.1,0.4,1.8c0,1.1-0.6,2.2-0.8,3.5
		c-0.1,0.2,0.2,0.6,0.1,0.8c-0.3,0.9-1.2,2.2-1.5,2.9c-0.1,0.2,0,0.6-0.1,0.8c-0.8,1.3-3.1,4-4.2,5c-1.2,1.1-2.4,1.9-3.4,3.1
		c-2.4,1.5-4.5,3-7.3,4.1c-1.1,0.4-2.5,1.1-3.6,1.4c-1.2,0.3-2.4,0.1-3.6,0.3c-0.5,0.1-0.8,0.4-1.2,0.4c-1.1,0.1-2.5-0.8-3.5,0.5
		c-0.6-0.8-1.9-0.3-3-0.5c0-0.1,0-0.3,0.1-0.5c-1,0.2-0.9-0.4-1.7-0.3c-0.4,1.3,0.8,1.2,0.7,2.3c0.6,0,0.7,0.3,1.1,0.4
		c-0.4,1.2,1.6,0.8,0.9,1.8c1.6,0.1,1.8,0.4,3.2,0.3c-0.1,0.6,0.3,0.9,0.6,1.1c0.8-0.2,1.6,0,3,0.2c-0.6,0.8,0.3,0.1,0.5,0.6
		c-0.8,0.3-1.9-0.1-2.7,0.5c0.3,0.6,2.2,0.8,4.1,0.6c0.4,0,1-0.4,1.4-0.4c0.7,0,1,0.4,1.5,0.4c1.7-0.1,3-1.2,4.3-1.2
		c0.2,0.6-0.7,0.1-0.6,0.5c0.6,0,0.8-0.3,1.5-0.3c0.2-0.6,2.1-1.2,1.8-0.7c0.8,0.1,1.8,0,3.2-0.3c1.7-0.1,3.2-1.5,4.6-2.4
		c1-0.6,1.3-0.8,2.1-1.4c0.4-0.3,0.9-0.6,1.2-0.9c2.5-1.9,4.7-3.8,6.5-6.1c0.4-1.3,1.1-2.3,1.9-3.2c0-0.4,0.1-0.8,0.1-1.2
		c0.8-0.5,0.5-1.1,0.8-1.7c0.1-0.3,0.6-0.5,0.6-0.7c0,0-0.2-0.4-0.1-0.7c0.6-1.9,1.7-4.9,1.9-7.2c0.2-2.5-0.7-5-0.9-7
		c0-0.1,0.3-0.4,0.2-0.5c0-0.3-0.4-0.5-0.5-0.8c-0.2-1.9-1-3.5-1.5-4.7c-0.6-1.2-0.7-2.1-1.2-3.1c-0.3-0.7-0.4-1.5-0.7-2.3
		c-0.3-0.7-0.9-1.3-1.1-1.9c-0.1-0.2,0.1-0.5,0.1-0.7c-0.5-1.3-1.4-2.4-1.9-3.7c-0.3-1-0.5-2-0.8-2.6c-1.1-2.3-1.5-4.8-1.9-7.1
		c-0.8-1.6-1.2-3.7-1.4-5.9c-0.2-1.9-0.2-4-0.1-6.1c0.2-2.2,0.4-4.9,1-7.1c1.4-5.1,3.9-9.6,5.9-13.6c0.3-0.5,0.9-0.8,1.1-1.8
		c0-0.6,0.8-2,1.2-2.4C280.9,187.1,279.1,190,280.5,189.2 M199.7,210.1c2.7-3,12.2-9.6,12.5-9.6l1.3-1.5c0.6-0.2,3.4-1.1,4.3-1.5
		c3-1.4,6-3.3,9.4-3.8c1.5-1,3.2-1.8,4.8-1.4c2.3-1.5,5.3-0.5,8.1,0.1c-7.2,6.1-16.1,10.2-24.5,14.5c-1.2,0.5-9.9,4-13.4,4.9
		C199.7,212.3,198,211.4,199.7,210.1"/>
	<path class="st2" d="M730.3,242.2c0,0.3,0.1,0.6,0.2,0.9c-0.5-0.3-0.7,0.2-1.3,0.2c0.1-0.5,0.6-0.5,0.4-1.1c-0.3-0.2-0.9,0.1-1-0.4
		c0.7-0.5,0.4-0.2,1.3-0.2c0-0.3,0.5-0.3,0.3-0.8c-0.7-0.3-1.9,1.1-2.9,0.4c0.4-0.1,0.3-0.5,0.5-0.8c-1.2-0.2-2.4,0.6-3.2,1.1
		c-0.7-0.5-1.8,0-2.5,0.7c0.6-0.2,0.5,0.4,1.1,0.1c0.1-0.3,0.5-0.5,0.8-0.7c0.2,0.4,0.8,0.2,1,0.5c-0.8,0.3-1.8,0.7-3,0.7
		c0-0.2,0.2-0.3-0.1-0.5c-0.9,0.3-1.2,0.2-2.2,0.2c0.2-0.1,0.5,0,0.5-0.2c-0.8,0-0.8,0.2-0.8,0.5c-1.4-0.1-2.4,0.7-3.3,1.4
		c-0.1-0.4,0.2-0.4,0.3-0.6c-0.9,0.1-2.1,0.5-2.8,1.2c-0.2-0.2-0.7-0.1-0.8-0.6c-5.1,1.8-11.3,1.9-15.8,3.7c-1.4-0.4-3.4,0-4.9,0.6
		c-3.6-0.4-6.6,0.8-9.7,1.1c-0.5,0-1.3,0.1-1.7-0.4c-1.6,0.6-3.1-0.1-4.9,0.6c-3.6-0.3-7.2,0-10.7,0.1c-2.2,0-4.3-0.4-6.4-0.6
		c-1.8-0.1-3.5,0-5-0.3c-0.5-0.1-1-0.5-1.6-0.6c-0.3-0.1-1,0.2-1.3,0.1c-1.8-0.7-4.4-1-6.4-1.3c-1.4-0.9-3.7-0.7-4.9-1.9
		c-2.3-0.4-4.4-1.1-6-2.5c-4-1.6-7.6-3.8-10.8-6.5c-0.4,0.1-0.6-0.2-0.9-0.2c-0.3-0.9-0.9-1.3-1.8-1.3c0.4-0.6-0.4-0.4-0.3-1.2
		c-1.7-0.5-2.3-2.5-3.8-3.2c-1.5-2.6-4.5-5-5.9-8.4c-0.4,0.1-0.6-0.1-0.8-0.4c-1.4-3.6-3.9-5.8-4.8-10c-0.2,0-0.4-0.1-0.6-0.3
		c0.1-1.4-1.4-2.8-1.3-4.2c0-0.3-0.5,0-0.6-0.2c0-1.9-1.1-2.1-1-4.3c0.8,0.2,0.4-1.1,0.5-1.5c0.4,0.1,0.2,0.5,0.6,0.1
		c0.3-0.6,0.2-1.3,1.1-1.8c-0.4-0.9,1.4-1.6,1.1-2.9c1.5-0.5,0.5-2.7,2.2-2.9c0-0.3-0.3-0.3-0.3-0.7c0.2-0.3,0.4-0.3,0.7-0.1
		c0.2-1.7,2.2-2.2,1.3-3.9c2-0.8,0.8-3.6,2.7-3.8c0.3-0.9,0.1-2.1,0.9-2.7c0-0.6-0.4-0.6-0.3-1.2c0.1-0.4,0.3-0.6,0.6-0.8
		c-0.3-1.9,2.7-5.1,2.4-7.1c0.4-0.7,1.4-3.3,1.5-3.6c1.3-2.4,1.2-4,1.5-4.8c-0.1,0,0.7-0.7,0.7-1c0-0.7,0.5-1.1,0.5-1.8l0.5-1.3
		l0.2-1.4l1.1-4.3c-0.1,0-0.2,0-0.2-0.1c0-0.4,0.3-1,0.5-1.7l0-0.3l-0.2-0.1l0.5-3.2c0.2-3.1,1.1-3.8,0.9-7.4
		c-0.1-0.8,0.2-2.7,0.1-3.5c0-1-0.5-4.6-0.4-5.6c0-1.9-0.4-2.6-0.5-2.9c-0.4-2.5-0.4-0.7-1.3-3c-0.1-0.5-0.2-1-0.4-1.6
		c0-0.5-0.8-0.6-0.9-0.9c0.2-0.8-0.4-0.9-0.8-1.6c-0.6-1.3-1-2.2-1.8-2.5c0-0.3-1.6-2.1-1.7-2.4c-1.5-1-1.5-0.6-3-1.6
		c0-0.2-0.1-0.3-0.1-0.5c-2.5-0.5-4.4-1.4-7.3-0.7c-0.1,0.5-0.4,0.9-1,1.1c-0.3,0.1-0.3-0.4-0.8-0.2c-1.6,0.4-2.3,1.4-3.8,1.8
		c-2.4,2.8-3.6,6.4-5.4,9.6c0.4,0.1-0.4,0.7,0,1.3c-1.2,1.1-0.8,3.2-1.8,4.5c0,0.2,0.1,0.4,0.2,0.5c-0.8,1.9-1.3,4.2-1.6,6.2
		c-0.4,2.3-1.1,4.9-1.1,7.2c-0.1,2.4-0.6,4.1-0.7,6.2c0,1.4,0.1,2.1-0.3,3.1c0.5,0.6-0.1,1.3-0.1,2c-0.2,3.9-0.2,8-0.3,12
		c0,0.2-0.2,0.3-0.3,0.4c0.3,2.4,0.4,4.8,0.1,7.7c0.7,0.9,0.3,2.5,0.3,3.5c0,1.4,0.4,2.5,0.5,3.8c0,0.1-0.3,0.3-0.3,0.6
		c-0.1,4,1.2,8.4,1.5,13.2c-1.3,1.8-1.4,4.2-3.4,5.5c-0.5,1.7-2,2.6-3,4c-1.4,0.7-1.6,3.1-3.1,3.8v0c0,0,0,0-0.1,0.1
		c-0.1,0-0.1,0.1-0.2,0.1l0,0c-1.8,1.4-7.2,7.5-8.2,6.7c-0.7,0.2-2.9,2-4.9-1.7c-0.3,0-3-6.2-3.4-7.6c-0.3-3.5-0.8-6.5-0.9-10.1
		c-0.1-0.9-0.3-1.7-0.7-2.3c0.8-2.4,0.6-2.6,1.2-6.5c0,0,0.4-1,0.2-1.8l0.2-1.4c0,0,0.1-3.1,0.1-3.1l-1.7-0.4c0,0-2-0.1-3.1,0.1
		c-1.2,0.1-0.6,0.1-1.6,0.2l-2.7,0.1c0,0-0.7,0.5-2.5,0.6l-1.7,1.9l-3.2,0.5l-6.1,2.4l-9.3,6l-4.9,3.2c-1.5,2.1-4.2,3.6-4.2,3.6
		l-3.6,3.4c1.2-1-3.2,4.4-5.8,6.8c-1.2,2.9-7.8,14.8-6.4,15.3c-1.7,7.8-2.5,8.2,5,15.6c5.1,5.1,13.6,1.1,16.7,0.1
		c1-0.7,1.9-1.3,2.7-2c7.2-2.9,8.8-4.8,14.9-12l0,0.7l1.5-3.6c3.6-3.8,2.9-6.3,6.8-10.6c0.1-0.2,0.3-0.4,0.4-0.6c0,0,0,0.1,0,0.2
		c0.6,1.4,1.8,4.4,2.1,6.1c1.1,3,6.1,8.7,7.4,9.7c3.5,2.4,7.9,1,9.3,0.4c3.4-1.2,8.6-8.4,9.3-8.7l-0.1-0.5c0.3-0.3,0.7-0.7,0.9-1.3
		c2.3-1.8,4.4-6,4.9-5.9c0.8-0.7,1.1-1.4,2.2-1.5c-0.3-0.5,0.9-2,1.6-2.1c0.1,0,0.8,0.9,1.1,0.3c1.1,1.6,1.7,3.7,2.4,5.8
		c3.2,4.9,5.8,10.7,9.7,14.7c1.1,2.6,2.6,2.5,3.6,4.9c1-0.1,1,1.2,1.8,1.5c0.4,1.4,2.5,1.9,3.6,3.1c-0.3,0.4,0,0.2,0.1,0.7
		c0.6-0.2,0.4,0.7,1.2,0.3c0,0.2-0.2,0.3-0.1,0.6c0.5,0.1,1,0.1,1.4,0.4c3.6,3.6,8.2,5.8,13,7.7c-0.2,0.1-0.4,0.1-0.4,0.3
		c2.7,1.1,5.2,2.4,8,3.3c0.1-0.7-1.1-0.5-0.6-0.8c0.7,0.2,1.4,0.3,1.8,0.9c0.4-0.6,0.1,0.2,0.4,0.1c3.5-0.1,6.6,2.1,10.6,1.9
		c0.2,0.6,1.7,0.3,1.3,1.2c0.9-0.6,2.6,0.5,3-0.8c0.8,0.7,1.2,0.2,2.4-0.1c0.1,0.8,1,0.6,1.4,1c-0.1-0.4,0.6-0.2,0.9-0.3
		c1.5,0.6,3.8-0.1,4.7,0.7c-0.9,0-1.6,0.1-2.3,0.6c0.8,0.2,2.1-0.2,2.8,0.2c0.4-0.4-0.5-0.8,0.2-1.1c0.2,0.9,0.3-0.2,0.7-0.1
		c0.3,0.2,0.6,0.3,0.7,0.8c-0.4,0.1-0.8,0.2-1.2,0.2c0.9,0.7,2.7,0.2,4.1,0.3c0.1-0.4-0.6-0.5-0.1-0.7c1.3,0.2,2.3,0,3.1-0.4
		c0.7,0.4,1.6-0.1,2.1,0.5c1-0.8,2.8-0.2,4.2-0.3c-0.2-0.5,0.5-0.4,0.6-0.7c0.7,0.6,2.7,0.3,3.5,0.1c1.8,0.1,4.3,0.1,6-0.6
		c-0.1-0.7,0.1-0.5-0.1-1c-0.6,0.2-0.2,0.6-0.7,0.1c-0.2,0.2,0.1,0.7-0.3,0.8c-0.7,0.2-1.8,0.2-2.8,0.2c0-0.2,0.2-0.3,0.1-0.6
		c-1.6,0.7-2.4,0.1-3.9,1.1c0.6-1.3-0.9-0.2-1.1-1.2c0.3-0.1,0.6-0.1,0.7,0.1c-0.3-0.9-1.2-0.5-1.3,0.2c0.2,0,0.5,0,0.2,0.1
		c-0.6,0.2-0.8-0.3-0.8-1c0.6-0.2,1.5-0.1,2.4-0.4c-0.2-0.8,0.7-0.9,0.7-1.6c0.3,0.9,1.6,0.4,2.3,0.3c-0.1,1.1-1.9,0.4-2.1,0.9
		c0.5-0.1,0.4,0.6,0.8,0.5c0-0.3,1.2-0.5,1.3-0.2c-0.2,0.4-1,0.3-1,0.9c0.7-0.1,1.1-1,1.6-0.3c0.1-0.4,0.1-1,0.6-1.2
		c0.9,0,2.9,0.3,3.6-0.7c-0.2,0.7,0.6,0,0.6,0.5c-0.5,0.5-0.7,1.1-1,0.9c-0.1,0.7,0.7,0.1,1.1,0.1c-0.3-1.1,0.5-1.6,0.9-1.4
		c0.2,0.1-0.1,0.5,0.2,0.5c0.1,0-0.2-0.8,0.1-0.7c0.2,0.7,1.2,0.4,1.7,0c0.1,0.3,0,0.7,0.3,0.7c0-0.1,0-0.2,0.2-0.2
		c0.1,0,0.1,0,0.1,0c0.1,0,0.1,0,0,0c0.6-0.1-0.6-0.2,0-0.3c0.7,0.4,1.9-0.3,2.9-0.6c0-0.3-0.2-0.6,0.1-0.7c0.7,0,1.1-0.1,1.3,0
		c-0.1,0.4-1.1,0.2-0.8,0.9c0,0,0.1,0,0.1,0c0.8-0.6,1.9-1.2,2.8-0.9c-0.1,0.2-0.4,0.2-0.3,0.6c0.3-0.1,0.5-0.1,0.8-0.1
		c0,0,0,0,0-0.1c0-0.5-0.4-0.3-0.1-0.7c3.1,0.4,6.5-0.9,10.5-1.8c0-0.2-0.1-0.5,0.2-0.6c0.1-0.2,0.5-0.2,0.5-0.5
		c0.4,0.1,0.1,0.5-0.2,0.6c0.2,0.3,0.7,0.3,1.4,0.1c0-0.5,0.2-0.8,0.6-0.9c0.3-0.2,0.8-0.4,0.7-0.9c0.2,0,0.4,0.1,0.5,0.3
		c0,0,0.1,0,0.1,0c0.2,0.2,0.6,0.3,0.6,0.8c-0.2,0-0.2,0.2-0.3,0.3c-0.4,0.2-0.4-0.2-0.6-0.3c-0.1,0.1-0.2,0.2-0.3,0.2
		c0.5,0.6,0.5,1.2,0.5,1.7c0.2-0.3,0.8-0.4,1.2-0.6c0-0.4-0.3-0.3-0.4-0.5c1.9-0.7,3.9-1.8,5.6-2.3c0,0.2,0,0.3,0,0.5
		c1.2,0,1.6-0.6,1.9-1.2c0.5,0.8,1.4-0.2,2.1,0.3c0.2-0.4,0.2-0.9,0.8-1c0,0.2-0.2,0.3,0,0.3c0.7-0.7,0.9,0,2.1-0.4
		c-0.2-0.6,0.6-0.9,0.1-1.3c-1.1,0.1,0.2,0.9-0.8,1c-0.3-0.4-0.8-0.5-1.3-0.1c0.1-0.6-0.3-0.5-0.6-0.6c-0.3,0.4,0.4,0.7-0.4,0.8
		c-0.2-0.2-0.1-0.6-0.2-1c-0.2,0.2-0.3,0.2-0.5,0.3c-0.6,0.7-1.3,0.6-2.2,1.2c0-0.4-0.1-0.6-0.4-0.6c-0.1,0-0.1,0.1-0.2,0.2
		c0,0.2,0.4,0.3-0.2,0.4c0-0.1,0-0.1-0.1-0.2c-0.2,0.2-0.4,0.2-0.5,0c-0.2,0.2-0.4,0.4-0.5,0.6c0.1-0.1,0.4,0.5-0.1,0.4
		c-0.1-0.2-0.3-0.3-0.6-0.6c0,0,0,0,0.1-0.1c-0.1,0-0.1-0.1-0.1-0.2c-0.4,0.3,0.5,0.7-0.5,0.8c0-0.3-0.1-0.5-0.3-0.5c0,0,0,0,0,0.1
		c0.3,0.4-0.9,0.7-0.8,0.5c-0.2-0.4,0-0.6,0-0.7c-0.3,0-0.4,0.1-0.9,0c0,0,0.1-0.1,0.2-0.2c-0.3,0-0.3-0.1-0.6-0.5
		c-0.2,1-1.3,0.8-2.3,0.8c0.2,0.4-0.7,0.9-0.9,0.5c0.8-0.3,0.6-0.3,0.3-0.8c0.6-0.9,2.6-0.5,2.6-1.2c0.6-0.3,0.2,0.6,0.8,0.2
		c0.5-0.6,1.7-1,2.5-0.8c0.2-0.5,1.5-0.3,1.7-1.2c0.6,0,0.6-0.5,1.2-0.4c-0.1,0.3-0.5,0.7,0.1,0.7c0.2-0.4,0.3-1,1-1.1
		c0.4,0.2-0.2,0.6,0.5,0.6c0.4-0.5,0.3-0.5,0.4-0.9c0.4,0.5,0.7-0.1,1,0.3c0-0.6,0.2-0.9,0.8-1c0.5,0.6-0.2,0.3,0,1.1
		c1.3-0.2,2.3-1.9,3.3-1.4c0.2-0.4-0.2-0.8,0.6-1c0.5-0.1,0.5,0.6,0.8,0.7c0.5-0.6,1.2-0.1,1.8-0.5
		C730.9,243.1,730.8,242.1,730.3,242.2 M549.2,206.5c-1.6,3.4-1.3,7.1-4.2,8.3l-0.2,1.5c-0.5,2.7-2.7,3.9-4.2,5.7l0.5,0.7
		c-0.5,1.5-2.5,3.8-3.8,4.4c-2.7,2.2-5.7,5.7-9.6,8.3c-4.2,0-3,1.9-8.2,1.5c-3.4-1.5-3.6-7.1-1.5-8.5c2.7-6.5,4-9.8,5.9-11.7
		c3.8-5.6,12.1-10,14.5-13.1c3.2-3.2,8.2-4.8,11.8-6.3L549.2,206.5z M598.4,187.1c-1.1-9.2-0.2-16.1-0.6-24.6
		c0.2-0.1,0.2-0.3,0.5-0.3c-0.5-5.7,0.8-10.6,1-16.2c1.6-1.4-0.5-6.4,1.7-6.8c-0.2-1.1,1.2-3,0.3-3.1c0.5-2.5,1.3-4.8,2.7-6.6
		c0-0.3-0.1-0.6-0.1-0.9c1.1-1.4,3.7-3.3,5.7-4.1c0.5,0.1-0.6,2.4,0.4,2c0.9,0.9,1.2,2.7,2.3,3.5l0.3,1.7c0.9,0.9,0.1,4,1.1,4.3
		c-0.1-0.3-0.2,2.5-0.1,2.3c-0.4,5,0.7,3.7-0.1,8.3c0.1,0.5,0.6,0.4,0.1,3c-0.1,0-0.4,1.3-0.5,1.3c-0.2-0.3,0.2,1.1-0.4,1.1
		c-0.4,0.6,0.1,1.3-0.3,2.2c0.1,0.2,0.3,0.1,0.5,0.1c0,0.2-0.1,0.4-0.1,0.6c-0.2,0.2-0.5,0.3-0.6,0.6c0.1,0.3,0.3-0.1,0.4,0.1
		c-0.4,0.6-0.5,1.1-0.3,1.9c0,0.2-0.1,0.4-0.1,0.6c-0.3,0.3-0.7,0.2-1.1,0.7c-0.1,0.4,0.3,1.4-0.7,1.6c0.5,0.5,0.1,1.4,0.4,1.7
		c-0.5,0-0.8,0.2-0.7,0.7c0.4,0.5-0.8,2.3-1.7,2.8c0.6,0.4,0.1,1.9,1,1.9c-0.4,0.3-0.7,0.7-1.1,0.2c-0.8,1.5-1.5,3.1-2.2,4.7
		c0.5-0.3,0.4,0.3,0.4,0.6c-0.5,0.2-0.8,0.6-1.2,1c0.2,0.8-0.5,1.6-0.6,2.3c-0.1,0.3-0.8,2.2-1.2,2.2c-0.4,1.5-1.3,2.7-2.1,4
		c-0.6,0-0.6,0.8-0.7,1.4C599.1,184.4,599.8,186.4,598.4,187.1 M676.5,258.6c0-0.3,0.3-0.3,0.6-0.3c-0.1,0.1-0.1,0.2-0.1,0.3
		C676.8,258.7,676.6,258.7,676.5,258.6 M677,258.6c0.1-0.1,0.1-0.2,0.3-0.3C677.3,258.5,677.2,258.6,677,258.6 M677.7,257.7
		c0.2-0.6,0.7-1.1,1.6-1.3c-0.1,0-0.2-0.1,0-0.2c0.3,0.1,0.7,0,0.8,0.4C679.4,256.6,679,257.4,677.7,257.7 M687.6,255.7
		c0.7-0.3,0.5,0.4,0.9,0.4C688.4,256.5,687.5,256.2,687.6,255.7 M691.2,256.3c0-0.4,0.4-0.5,0.7-0.3
		C691.9,256.2,691.5,256.2,691.2,256.3 M692.1,256.1c-0.1-0.4,0.2-0.4,0.5-0.4C692.6,255.9,692.4,256.1,692.1,256.1 M693.6,254.2
		c-0.2-0.6,0.5-0.4,0.8-0.5C694.4,254.1,694,254.2,693.6,254.2 M695.8,254.8c0-0.4,0.5-0.5,0.7-0.3
		C696.5,254.7,696.1,254.7,695.8,254.8 M696.8,253.5c0.3-0.3,1-0.7,1.4-0.5C697.7,253.5,697.2,253.5,696.8,253.5 M698.4,253.9
		c-0.1-0.5,1.5-0.9,1.4-0.3C699.3,253.5,698.9,253.6,698.4,253.9 M700.7,252.2c0.6-0.1,1.2-0.3,1.1,0.3
		C701.4,252.7,700.8,252.8,700.7,252.2 M703,254.4c-0.8-0.6-1.1,0.3-2,0.2c0.4-1,1.5-0.6,2.4-1.3c0,0.3,0.3,0.3,0.2,0.7
		C703.3,254,702.7,253.9,703,254.4 M705,251.3c-0.6,0.2-0.7-0.2-0.8-0.6c0.2,0.1,0.5,0.1,0.9,0C705,250.9,705,251,705,251.3
		 M705.2,253.2c0.1-0.2,0.2-0.2,0.2-0.4c0.1,0,0.2-0.1,0.3-0.1C705.8,253.2,705.5,253.2,705.2,253.2 M706.8,250.8
		c-0.1,0-0.2,0-0.4,0.1c0-0.7-0.2,0.1-0.6-0.2c0-0.4,0.8-0.2,1-0.4C706.9,250.5,706.8,250.5,706.8,250.8 M708.9,252.8
		c-0.2,0-0.3-0.3-0.6-0.3c0-0.3,0.4-0.2,0.7-0.3C709,252.4,708.9,252.5,708.9,252.8 M709.2,251.8c-0.4,0-0.1-0.6-0.1-0.7
		c0.2,0,0.2,0.4,0.4,0.3C709.5,251.6,709.2,251.6,709.2,251.8 M709.5,251c0-0.6,1.1-1,1.4-0.4C710.8,251,709.9,251.3,709.5,251
		 M713.9,250.1c0,0.1,0,0.2,0,0.3c-0.1,0-0.2,0-0.4,0.1c0-0.1,0-0.2,0-0.3C713.7,250.1,713.8,250.1,713.9,250.1 M711.9,250
		c0,0.3,0,0.5,0,0.8C711.4,250.9,711.2,250.1,711.9,250"/>
	<path class="st2" d="M753,244.7c-2,0-3.9-0.4-5.6-1.2c-1.7-0.8-3.2-1.8-4.5-3.1c-1.3-1.3-2.3-2.9-3-4.6c-0.7-1.7-1.1-3.6-1.1-5.6
		c0-2,0.4-3.9,1.2-5.6c0.8-1.7,1.8-3.2,3.1-4.5c1.3-1.3,2.9-2.3,4.6-3.1c1.7-0.7,3.6-1.1,5.5-1.1c2.1,0,4,0.4,5.8,1.2
		c1.7,0.7,3.2,1.8,4.5,3.1c1.3,1.3,2.3,2.8,3,4.6c0.7,1.7,1.1,3.6,1.1,5.6c0,2-0.4,3.9-1.2,5.6c-0.7,1.7-1.8,3.3-3.1,4.6
		c-1.3,1.3-2.9,2.3-4.6,3.1c-1.7,0.7-3.6,1.1-5.5,1.1L753,244.7L753,244.7z M753.2,217.7c-1.7,0-3.4,0.3-4.9,1
		c-1.5,0.7-2.9,1.6-4,2.7c-1.1,1.1-2,2.5-2.7,4c-0.6,1.5-1,3.1-1,4.9c0,1.8,0.3,3.5,0.9,5c0.6,1.5,1.5,2.9,2.6,4
		c1.1,1.1,2.4,2.1,3.9,2.7c1.5,0.7,3.2,1,4.9,1c1.9,0,3.5-0.3,5-1c1.5-0.6,2.9-1.6,4-2.7c1.1-1.1,2-2.5,2.7-4c0.6-1.5,1-3.1,1-4.9
		c0-1.8-0.3-3.5-0.9-5c-0.6-1.5-1.5-2.9-2.6-4c-1.1-1.1-2.4-2.1-4-2.7c-1.5-0.7-3.2-1-4.9-1l-0.1-0.2L753.2,217.7L753.2,217.7z
		 M757.7,237.4l-4.3-5.6l-3.4,0l-0.1,5.5l-2.5,0l0.1-14.9l6.7,0.1c0.9,0,1.8,0.2,2.6,0.4c0.8,0.3,1.4,0.7,1.9,1.2
		c0.4,0.4,0.7,0.8,0.9,1.3c0.2,0.5,0.3,1,0.3,1.7c0,1.3-0.4,2.3-1.1,3c-0.7,0.7-1.5,1.1-2.6,1.4l4.5,6L757.7,237.4z M754,229.6
		c1,0,1.8-0.2,2.4-0.6c0.6-0.4,0.9-1,0.9-1.8c0-0.8-0.3-1.4-0.8-1.8c-0.6-0.4-1.3-0.7-2.3-0.7l-4.1,0l0,4.9L754,229.6z"/>
	<path class="st2" d="M753.2,216.1h0.1c2,0,3.8,0.4,5.6,1.2c1.7,0.8,3.2,1.8,4.5,3.1c1.3,1.3,2.3,2.8,3,4.5c0.7,1.7,1.1,3.6,1.1,5.5
		v0.1c0,1.9-0.4,3.8-1.2,5.5c-0.7,1.7-1.8,3.2-3.1,4.5s-2.8,2.3-4.6,3c-1.7,0.7-3.5,1.1-5.5,1.1H753c-2,0-3.8-0.4-5.6-1.2
		c-1.7-0.8-3.2-1.8-4.5-3.1c-1.2-1.3-2.3-2.8-3-4.5c-0.7-1.7-1.1-3.5-1.1-5.5v-0.1c0-1.9,0.4-3.8,1.2-5.5c0.8-1.7,1.8-3.2,3.1-4.5
		c1.3-1.3,2.8-2.3,4.6-3.1C749.5,216.4,751.3,216.1,753.2,216.1 M753.2,243.1c1.8,0,3.4-0.3,4.9-1c1.6-0.7,2.9-1.6,4.1-2.7
		c1.1-1.1,2.1-2.5,2.7-4c0.7-1.5,1-3.2,1-4.9v-0.1c0-1.8-0.3-3.4-0.9-5c-0.6-1.6-1.5-2.9-2.6-4.1c-1.1-1.1-2.5-2.1-4-2.7
		c-1.5-0.7-3.2-1-5-1.1c0,0-0.1,0-0.1,0c-1.8,0-3.4,0.3-4.9,1c-1.5,0.7-2.9,1.6-4.1,2.7c-1.2,1.1-2.1,2.5-2.7,4
		c-0.7,1.6-1,3.2-1,4.9v0.1c0,1.7,0.3,3.4,0.9,5c0.6,1.6,1.5,2.9,2.6,4.1c1.1,1.1,2.5,2.1,4,2.7c1.5,0.7,3.2,1,5,1L753.2,243.1
		 M747.7,222.6l6.5,0.1c0.9,0,1.8,0.2,2.5,0.4c0.7,0.3,1.3,0.7,1.8,1.1c0.4,0.3,0.7,0.8,0.9,1.2c0.2,0.5,0.3,1,0.3,1.6v0.1
		c0,1.2-0.4,2.1-1.1,2.8c-0.7,0.7-1.6,1.2-2.7,1.4l4.5,5.9l-2.7,0l-4.2-5.5h-0.1l-3.7,0l0,5.5l-2.2,0L747.7,222.6 M754,229.8
		c1,0,1.8-0.2,2.4-0.6c0.6-0.5,1-1.1,1-1.9v-0.1c0-0.8-0.3-1.4-0.9-1.8c-0.6-0.5-1.4-0.7-2.4-0.7l-4.3,0l-0.1,5.2L754,229.8
		L754,229.8 M753.2,215.8c-2,0-3.9,0.4-5.6,1.1c-1.8,0.8-3.3,1.8-4.7,3.1c-1.3,1.3-2.4,2.8-3.2,4.6c-0.8,1.7-1.1,3.6-1.2,5.6
		c0,2.1,0.3,4,1.1,5.7c0.7,1.7,1.8,3.3,3,4.6c1.3,1.3,2.8,2.4,4.6,3.2c1.8,0.8,3.7,1.2,5.7,1.2h0.1c2,0,3.9-0.4,5.6-1.1
		c1.8-0.8,3.4-1.8,4.7-3.1c1.3-1.3,2.4-2.8,3.1-4.6c0.7-1.7,1.2-3.6,1.2-5.6c0-2-0.3-3.9-1.1-5.7c-0.7-1.7-1.8-3.3-3-4.6
		c-1.3-1.3-2.8-2.4-4.6-3.2c-1.7-0.8-3.7-1.2-5.7-1.2L753.2,215.8L753.2,215.8z M753.2,242.8H753c-1.8,0-3.4-0.4-4.9-1
		c-1.5-0.7-2.8-1.6-3.9-2.7c-1.1-1.1-2-2.5-2.6-4c-0.6-1.5-0.9-3.1-0.9-4.8c0-1.8,0.4-3.4,1-4.9c0.6-1.5,1.5-2.8,2.7-3.9
		c1.1-1.1,2.4-2,4-2.7c1.5-0.6,3.1-1,4.8-1h0.1c1.8,0,3.4,0.4,4.9,1c1.5,0.7,2.8,1.6,3.9,2.7c1.1,1.1,2,2.5,2.6,4
		c0.6,1.5,0.9,3.1,0.9,4.8c0,1.8-0.3,3.4-1,4.9c-0.6,1.5-1.5,2.8-2.7,3.9c-1.1,1.1-2.5,2-4,2.7C756.5,242.5,754.9,242.8,753.2,242.8
		 M747.4,222.2l0,0.3l-0.1,14.6l0,0.3h0.3l2.2,0h0.3l0-0.3l0-5.2l3.3,0l4.1,5.4l0.1,0.1h0.2l2.7,0h0.6l-0.4-0.5l-4.2-5.5
		c1-0.3,1.8-0.8,2.4-1.4c0.8-0.7,1.2-1.8,1.2-3c0-0.7-0.1-1.3-0.3-1.8c-0.2-0.5-0.5-1-0.9-1.3c-0.5-0.5-1.1-0.9-1.9-1.2
		c-0.8-0.3-1.7-0.4-2.6-0.4l-6.5-0.1L747.4,222.2L747.4,222.2z M750.1,229.4l0-4.6l4,0c1,0,1.7,0.2,2.2,0.7c0.5,0.4,0.8,0.9,0.8,1.6
		c0,0.8-0.3,1.3-0.9,1.7c-0.6,0.4-1.3,0.6-2.2,0.6v0.3l-0.1-0.3L750.1,229.4z"/>
</g>
</svg>
